<?xml version="1.0" standalone="no"?>
<!DOCTYPE svg PUBLIC "-//W3C//DTD SVG 20010904//EN"
 "http://www.w3.org/TR/2001/REC-SVG-20010904/DTD/svg10.dtd">
<svg version="1.0" xmlns="http://www.w3.org/2000/svg"
 width="727.000000pt" height="727.000000pt" viewBox="0 0 727.000000 727.000000"
 preserveAspectRatio="xMidYMid meet">
<metadata>
Created by potrace 1.11, written by Peter Selinger 2001-2013
</metadata>
<g transform="translate(0.000000,727.000000) scale(0.100000,-0.100000)"
fill="#000000" stroke="none">
<path d="M440 4692 c-6 -2 -10 -17 -10 -33 0 -21 -4 -28 -12 -23 -10 6 -10 4
0 -7 17 -18 15 -34 -3 -19 -12 10 -19 8 -36 -11 -18 -21 -20 -22 -14 -4 5 15
3 17 -5 9 -9 -9 -9 -17 -1 -32 13 -24 14 -35 3 -28 -4 2 -8 -6 -8 -20 0 -16 3
-21 10 -14 13 13 46 13 46 1 0 -6 -5 -13 -12 -17 -7 -4 -8 -3 -4 4 5 8 2 10
-8 6 -9 -3 -13 -10 -10 -16 3 -5 12 -7 20 -4 7 3 18 -3 24 -12 8 -14 9 -13 7
8 -1 17 3 25 16 26 12 1 13 0 2 -3 -8 -2 -15 -9 -15 -14 0 -12 27 -12 35 1 9
14 28 13 23 -2 -2 -6 -12 -12 -22 -14 -25 -4 -32 -13 -10 -12 11 0 28 -3 39
-7 16 -5 17 -5 5 4 -8 5 -11 13 -7 17 13 14 36 13 48 -2 7 -9 8 -14 1 -14 -6
0 -13 5 -15 10 -3 6 -4 5 -3 -2 2 -7 15 -13 31 -13 19 0 30 -6 35 -19 6 -19 7
-19 12 2 4 12 2 20 -2 17 -5 -3 -12 0 -16 6 -4 8 -3 9 4 5 7 -4 12 -3 12 3 0
5 -6 12 -12 14 -7 3 -8 6 -2 6 5 1 20 -13 33 -29 12 -17 25 -29 29 -27 4 2 15
-4 25 -15 9 -10 13 -18 8 -18 -6 0 -13 5 -16 11 -4 6 -14 8 -22 5 -9 -4 -11
-2 -7 6 5 7 3 8 -6 3 -9 -6 -11 -4 -5 6 7 12 5 12 -6 1 -12 -11 -12 -14 1 -22
8 -5 17 -7 21 -5 3 3 15 -5 25 -16 10 -11 14 -20 9 -19 -21 5 -25 -1 -13 -14
7 -8 16 -12 19 -10 3 2 6 -3 6 -11 0 -8 -5 -11 -11 -7 -6 4 -14 7 -18 7 -3 0
-10 4 -15 9 -5 5 -2 6 6 1 9 -5 12 -4 7 3 -13 21 -27 13 -22 -13 3 -16 -1 -28
-12 -35 -14 -8 -12 -9 8 -6 14 3 29 5 34 5 6 1 1 8 -10 16 -17 14 -17 14 10 3
l29 -13 -37 -16 c-44 -19 -62 -34 -23 -20 15 6 27 8 27 5 0 -4 8 0 18 7 15 12
15 11 -1 -8 -12 -13 -25 -19 -35 -16 -10 4 -14 2 -9 -2 4 -5 17 -9 29 -10 12
-1 23 -7 24 -14 2 -7 0 -7 -3 -1 -3 7 -10 4 -19 -7 -9 -11 -13 -13 -12 -4 2 7
-4 16 -12 18 -12 4 -12 3 -2 -5 11 -7 10 -10 -5 -14 -11 -3 -20 -12 -20 -21 0
-9 4 -14 9 -11 5 3 6 10 3 15 -4 5 2 9 11 9 10 0 15 -3 11 -6 -3 -3 -2 -17 3
-30 6 -15 5 -26 -2 -30 -6 -4 -8 -3 -5 2 3 6 1 16 -4 24 -7 11 -8 8 -5 -10 2
-14 -2 -32 -8 -40 -10 -13 -9 -13 7 -1 9 7 17 9 17 3 0 -5 -10 -17 -22 -26
-20 -14 -21 -15 -3 -9 16 5 18 4 8 -8 -7 -7 -13 -17 -13 -23 0 -5 7 -1 15 10
15 19 16 19 13 -1 -2 -11 -10 -25 -18 -32 -8 -6 -12 -15 -7 -19 4 -4 7 -2 7 4
0 7 5 12 11 12 5 0 8 -4 4 -9 -3 -5 -1 -12 4 -15 5 -3 7 8 6 24 -2 22 3 34 17
41 11 6 22 8 26 5 3 -3 0 -6 -8 -6 -10 0 -10 -3 1 -17 11 -15 11 -16 -1 -5
-19 16 -27 15 -27 -3 0 -8 5 -15 11 -15 6 0 4 -5 -4 -10 -8 -5 -11 -10 -6 -10
5 0 4 -6 -2 -13 -6 -7 -12 -36 -13 -64 -2 -32 -8 -54 -16 -57 -7 -3 -13 -11
-12 -18 0 -10 2 -10 6 0 2 6 9 12 14 12 6 0 8 -4 4 -9 -3 -5 -1 -12 4 -15 5
-3 7 8 6 24 -1 17 1 33 6 35 4 3 7 11 5 18 -1 7 -1 9 1 4 3 -4 10 -4 15 -1 7
4 8 2 4 -5 -4 -6 -2 -20 5 -29 11 -14 11 -15 -1 -4 -19 16 -27 15 -27 -3 0 -8
5 -15 11 -15 6 0 4 -5 -4 -10 -8 -5 -11 -10 -6 -10 5 0 4 -6 -2 -13 -6 -7 -12
-36 -13 -64 -2 -32 -8 -54 -16 -57 -7 -3 -13 -11 -12 -18 0 -10 2 -10 6 0 2 6
9 12 14 12 6 0 8 -4 4 -9 -3 -5 -1 -12 4 -15 5 -3 7 8 6 24 -1 17 1 33 6 35 4
3 7 11 5 18 -1 7 -1 9 1 4 3 -4 10 -4 15 -1 7 4 8 2 4 -5 -4 -6 -2 -20 5 -29
11 -14 11 -15 -1 -4 -19 16 -27 15 -27 -3 0 -8 5 -15 11 -15 6 0 4 -5 -4 -10
-8 -5 -11 -10 -6 -10 5 0 4 -6 -2 -13 -6 -7 -12 -36 -13 -64 -2 -32 -8 -54
-16 -57 -7 -3 -13 -11 -12 -18 0 -10 2 -10 6 0 2 6 9 12 14 12 6 0 8 -4 4 -9
-3 -5 -1 -12 4 -15 5 -3 7 8 6 24 -1 17 1 33 6 35 4 3 7 11 5 18 -1 7 -1 9 1
4 3 -4 10 -4 15 -1 7 4 8 2 4 -5 -4 -6 -2 -20 5 -29 11 -14 11 -15 -1 -4 -19
16 -27 15 -27 -3 0 -8 5 -15 11 -15 6 0 4 -5 -4 -10 -8 -5 -11 -10 -6 -10 5 0
4 -6 -2 -13 -15 -18 -18 -98 -4 -124 8 -14 9 -24 2 -28 -5 -3 -10 -11 -10 -17
0 -6 9 -3 20 7 11 10 23 15 27 12 3 -4 1 -7 -6 -7 -7 0 -9 -5 -5 -12 4 -6 3
-8 -3 -5 -6 4 -16 0 -23 -8 -7 -8 -18 -15 -26 -15 -7 0 -15 -4 -18 -9 -4 -5 2
-7 13 -4 12 3 20 -2 23 -15 4 -14 2 -19 -7 -16 -7 3 -16 1 -20 -5 -4 -7 1 -8
12 -4 16 6 16 5 4 -10 -10 -13 -11 -20 -2 -31 10 -11 9 -16 -5 -24 -15 -8 -15
-10 1 -16 14 -5 15 -9 5 -21 -7 -9 -10 -18 -7 -21 8 -9 28 6 22 16 -3 4 2 11
11 14 9 3 12 2 9 -5 -4 -6 1 -20 12 -32 13 -16 14 -18 1 -9 -10 8 -18 9 -22 3
-4 -6 -14 -7 -23 -4 -15 6 -16 5 -3 -9 10 -11 19 -13 27 -7 7 7 14 6 19 -2 4
-7 3 -9 -3 -6 -6 4 -16 0 -23 -8 -7 -8 -18 -15 -26 -15 -7 0 -15 -4 -18 -9 -4
-5 2 -7 13 -4 21 5 37 -32 19 -44 -7 -3 -8 -1 -4 5 4 7 2 12 -3 12 -14 0 -14
-17 -1 -25 15 -9 12 -25 -4 -25 -20 0 -29 -17 -15 -26 8 -4 9 -3 5 4 -4 7 -1
12 9 12 9 0 14 -4 10 -9 -3 -5 -1 -12 5 -16 6 -4 7 -11 4 -17 -5 -8 -1 -9 10
-5 11 4 15 3 11 -4 -4 -6 1 -20 12 -32 11 -14 12 -17 2 -10 -12 10 -18 10 -27
1 -9 -9 -11 -6 -7 10 2 12 -1 24 -6 27 -5 4 -7 11 -4 16 4 5 2 9 -4 9 -6 0 -9
-12 -8 -27 1 -17 -3 -27 -10 -26 -12 3 -12 -15 1 -36 5 -7 9 -22 10 -32 1 -22
19 -27 24 -7 2 9 0 8 -7 -2 -9 -12 -10 -10 -8 10 2 14 -2 30 -11 36 -11 8 -12
13 -3 18 6 4 14 0 17 -9 5 -13 9 -13 23 -3 12 9 11 7 -2 -9 -11 -12 -14 -24
-9 -27 6 -3 12 -3 15 1 2 5 2 1 -1 -7 -2 -8 -5 -20 -5 -27 0 -6 -12 -10 -29
-7 -17 2 -26 -1 -23 -6 4 -6 -18 -10 -52 -11 -52 -1 -106 -4 -125 -8 -5 0 -8
-18 -8 -38 0 -28 -3 -34 -10 -23 -8 13 -10 13 -10 -2 0 -9 4 -20 10 -23 6 -4
4 -15 -5 -29 -8 -12 -12 -25 -9 -29 3 -3 2 -12 -2 -19 -12 -19 -13 -58 -1 -58
5 0 7 7 3 15 -3 8 -1 15 5 15 6 0 7 5 4 10 -3 6 -1 10 5 10 6 0 9 -8 6 -18 -5
-14 -1 -18 12 -17 26 2 43 15 36 27 -4 7 -2 8 5 4 9 -6 9 -11 0 -22 -9 -11 -9
-14 1 -14 10 0 10 -3 1 -14 -8 -10 -9 -16 -1 -21 6 -4 9 -1 8 6 -4 16 24 19
34 4 5 -7 8 -6 8 1 0 6 -8 18 -17 25 -14 12 -16 12 -8 0 5 -10 4 -12 -4 -7 -8
6 -9 12 -2 20 7 9 7 17 -2 26 -10 12 -9 12 5 1 10 -7 16 -17 13 -21 -5 -8 27
-24 50 -25 6 -1 20 -6 32 -13 19 -11 22 -10 17 2 -5 13 -2 13 19 3 14 -6 23
-16 20 -21 -4 -5 -1 -6 6 -2 14 9 5 26 -15 26 -8 0 -13 4 -10 9 3 4 -14 7 -39
6 -32 -2 -48 2 -57 13 -10 14 -10 15 2 5 16 -15 34 -17 25 -4 -3 5 0 13 6 17
7 4 9 3 5 -4 -3 -6 -2 -13 4 -17 5 -3 10 0 10 7 0 8 3 9 8 3 11 -16 35 -18 29
-2 -3 8 3 13 18 13 13 0 22 -3 19 -7 -2 -5 4 -13 15 -19 13 -7 22 -7 26 0 4 6
11 8 16 5 5 -4 9 2 10 12 0 16 1 16 8 -1 5 -14 10 -16 15 -7 4 6 2 20 -6 29
-12 15 -11 16 4 3 18 -13 19 -44 3 -58 -4 -5 -5 -3 -2 4 6 10 -11 11 -33 3 -3
-1 -8 -2 -12 -1 -5 0 -8 -4 -8 -9 0 -6 11 -8 25 -6 13 3 27 0 31 -5 3 -5 11
-6 17 -2 7 4 20 8 30 9 9 1 19 3 22 4 13 7 31 5 37 -5 5 -6 11 -6 20 3 17 17
48 15 48 -2 0 -20 13 -27 30 -14 12 8 12 9 -2 4 -11 -3 -18 0 -18 7 0 15 51
17 62 3 4 -6 13 -5 21 3 13 10 17 9 25 -5 9 -16 10 -15 17 5 4 12 2 28 -5 36
-8 10 -8 15 1 21 8 4 9 3 5 -5 -4 -6 0 -14 9 -17 9 -4 14 -13 11 -20 -3 -8 4
-18 17 -24 21 -11 21 -11 3 4 -19 15 -17 16 28 16 29 0 45 -4 41 -10 -3 -5 -2
-10 4 -10 5 0 12 6 14 13 4 9 8 9 15 -2 8 -11 14 -12 24 -3 11 9 18 9 28 -1 7
-6 5 0 -4 15 -12 18 -14 28 -6 33 6 3 9 3 8 -2 -2 -5 7 -21 18 -36 18 -22 23
-24 28 -11 5 13 9 14 21 4 13 -11 18 -10 29 5 7 10 18 15 24 11 6 -3 17 3 25
14 14 20 15 20 22 3 5 -10 8 -25 7 -33 -1 -10 0 -11 4 -2 8 18 32 15 37 -5 4
-17 5 -17 6 0 0 10 -6 20 -14 23 -8 4 -12 11 -9 16 4 5 15 -3 26 -19 11 -15
18 -20 15 -11 -3 9 1 22 9 29 9 8 11 16 5 23 -7 8 -4 12 9 12 17 0 18 -3 6
-21 -14 -21 -15 -59 -2 -72 4 -5 7 -3 6 2 -5 21 0 36 10 30 6 -3 10 -1 10 5 0
7 -7 9 -17 6 -14 -6 -14 -4 2 16 11 13 22 25 24 28 2 3 1 -4 -3 -15 -5 -16 -1
-21 14 -22 17 -2 19 1 9 20 -9 20 -9 20 4 5 15 -19 43 -25 32 -8 -3 6 -1 10 4
10 6 0 11 -5 11 -11 0 -5 4 -8 9 -4 13 7 43 -24 35 -37 -4 -7 -2 -8 5 -4 6 4
9 12 6 17 -3 5 1 6 9 3 9 -3 16 -2 16 3 0 5 7 10 15 10 8 0 15 -5 15 -11 0 -5
6 -1 14 9 13 18 13 18 24 -1 7 -12 12 -14 12 -5 0 11 3 11 15 1 19 -16 30 8
21 48 -4 15 -3 23 1 17 12 -16 35 -17 44 -3 6 10 11 10 20 1 13 -13 42 -6 34
8 -3 4 4 6 16 4 16 -3 19 0 15 13 -4 10 2 6 14 -8 11 -14 20 -20 20 -15 0 6 5
3 11 -5 9 -13 10 -13 6 0 -2 8 -9 14 -15 13 -5 -1 -9 4 -8 13 1 8 6 14 11 13
4 0 11 5 15 11 5 8 9 7 13 -5 4 -9 3 -13 -2 -10 -5 3 -13 0 -17 -6 -5 -9 1
-10 20 -5 17 4 26 2 26 -5 0 -7 3 -9 7 -6 3 4 -2 16 -13 28 l-19 21 36 -21 36
-21 -3 25 c-2 21 1 25 17 20 12 -4 21 -1 25 9 9 25 26 19 19 -6 l-6 -23 14 23
c7 12 16 19 20 16 4 -4 7 -2 7 5 0 8 -7 11 -17 7 -17 -6 -17 -5 0 8 9 7 17 18
17 24 0 17 18 24 26 11 5 -8 3 -9 -6 -4 -10 6 -12 3 -8 -13 4 -15 2 -20 -5
-15 -7 4 -5 -2 3 -13 22 -29 24 -30 17 -12 -4 12 1 21 13 28 11 6 20 16 20 23
0 7 -4 6 -10 -3 -6 -9 -10 -10 -10 -3 0 7 9 17 20 23 12 6 18 16 14 23 -4 7
-4 9 1 5 4 -4 15 -2 23 5 10 7 13 8 9 1 -4 -7 1 -14 11 -16 11 -3 19 0 19 8 0
7 -4 11 -9 8 -4 -3 -8 0 -8 6 0 7 7 9 16 6 9 -3 18 -6 20 -6 3 0 2 -5 -2 -12
-4 -7 -3 -8 5 -4 6 4 9 11 6 15 -2 5 6 9 20 9 16 0 22 -5 18 -12 -4 -6 1 -5
10 3 17 14 24 26 9 17 -4 -2 -14 -1 -22 4 -8 5 -21 5 -30 0 -12 -6 -17 -5 -17
5 0 7 7 11 15 7 11 -4 13 -1 7 8 -5 8 -4 11 3 6 6 -3 14 0 19 7 4 8 26 29 47
48 22 19 36 28 31 20 -5 -9 -4 -12 2 -8 6 4 16 20 23 37 12 28 14 29 26 13 12
-16 13 -16 7 5 -3 13 -1 22 6 22 7 0 10 -4 6 -9 -3 -5 -1 -12 4 -15 10 -7 9
13 -2 31 -4 7 1 18 13 26 11 7 17 17 13 21 -4 4 0 4 10 0 13 -5 16 -2 11 10
-3 9 -1 16 5 16 6 0 10 6 9 13 -2 6 2 11 7 10 6 -1 12 8 12 19 1 11 8 28 16
37 8 9 18 26 22 39 3 12 11 19 17 16 6 -4 8 -2 5 4 -6 9 30 120 43 132 3 3 6
21 8 40 1 19 5 42 8 50 10 24 13 57 17 195 6 201 -26 351 -107 500 -167 306
-552 503 -1059 541 -89 7 -1129 12 -1147 6z m-27 -119 c-3 -7 -10 -10 -16 -6
-6 4 -8 0 -5 -9 4 -8 -3 -20 -15 -28 -20 -12 -21 -12 -9 3 8 9 11 21 7 27 -4
6 1 20 11 31 19 21 37 9 27 -18z m37 -27 c0 -2 -6 -9 -14 -15 -11 -9 -16 -9
-22 0 -4 7 -3 9 4 5 6 -3 13 -2 17 4 6 10 15 14 15 6z m926 -18 c3 -4 -1 -5
-10 -4 -8 1 -18 5 -22 8 -3 4 1 5 10 4 8 -1 18 -5 22 -8z m70 -13 c1 -8 -2
-15 -6 -15 -5 0 -8 9 -7 20 1 21 10 18 13 -5z m-913 0 c9 2 17 0 17 -5 0 -14
-49 -8 -55 8 -4 11 -2 12 7 5 7 -6 21 -9 31 -8z m54 0 c0 -8 -4 -12 -9 -9 -8
5 -12 -10 -8 -36 1 -12 -1 -12 -11 -3 -9 9 -8 17 5 37 19 30 23 32 23 11z
m603 -8 c0 -5 -6 -7 -12 -4 -7 2 -20 1 -29 -4 -10 -5 -16 -4 -16 4 0 7 13 12
29 12 15 1 28 -3 28 -8z m140 -7 c0 -5 -5 -10 -11 -10 -5 0 -7 5 -4 10 3 6 8
10 11 10 2 0 4 -4 4 -10z m-183 -18 c11 9 18 8 29 -4 11 -11 12 -18 5 -22 -6
-4 -11 0 -11 8 0 18 -15 21 -25 6 -7 -11 -55 8 -55 22 0 5 10 2 22 -6 16 -12
25 -13 35 -4z m66 -9 c-17 -26 -28 -61 -15 -48 4 4 7 12 7 18 0 5 6 12 14 15
9 3 11 0 5 -9 -7 -12 -5 -12 9 0 14 11 17 11 17 0 0 -11 2 -11 10 1 9 14 15 6
10 -15 -1 -5 1 -7 5 -3 4 3 7 10 7 15 0 4 5 15 11 23 10 13 10 13 -5 1 -10 -7
-18 -11 -18 -8 0 3 -3 14 -6 24 -5 15 -4 16 5 3 9 -12 13 -13 20 -2 6 11 10
10 15 -3 3 -9 4 -20 1 -25 -3 -4 2 -13 10 -20 12 -10 13 -7 9 17 -2 15 -1 23
3 17 8 -11 37 -25 63 -30 19 -4 31 16 24 39 -9 30 4 18 22 -19 11 -22 20 -31
24 -24 4 7 11 11 16 11 14 -1 11 23 -4 34 -10 9 -9 11 7 11 11 0 18 -2 16 -4
-5 -5 21 -32 30 -32 3 0 3 5 -1 12 -4 6 3 4 17 -5 26 -19 43 -22 34 -7 -6 9 4
8 43 -7 9 -3 21 -7 26 -7 5 -1 11 -8 13 -16 4 -13 3 -13 -7 0 -8 10 -10 11 -8
2 2 -8 7 -13 11 -13 4 1 15 1 25 1 13 0 14 2 3 9 -10 7 -11 12 -1 27 9 16 11
16 6 2 -6 -20 7 -31 41 -34 16 -2 21 1 17 9 -4 7 4 2 18 -11 14 -13 29 -22 34
-21 5 1 16 1 23 0 12 -1 12 -4 3 -13 -19 -19 -14 -29 7 -16 11 7 18 15 15 19
-2 4 3 10 11 13 13 4 13 2 5 -14 -5 -10 -10 -29 -9 -42 1 -21 1 -21 11 5 8 22
13 25 24 17 7 -7 18 -9 23 -6 5 4 12 2 16 -4 4 -6 11 -7 17 -4 6 4 8 2 4 -4
-3 -6 4 -18 16 -26 18 -13 20 -18 9 -28 -11 -11 -12 -10 -6 1 6 10 4 12 -5 6
-9 -6 -11 -4 -5 5 6 9 4 11 -5 5 -9 -5 -11 -4 -6 4 4 6 4 10 -1 9 -4 -1 -21 6
-36 16 -15 10 -30 16 -34 12 -3 -3 0 -6 8 -6 12 0 11 -2 -1 -11 -11 -8 -9 -9
10 -3 21 6 23 5 13 -8 -15 -18 -5 -32 13 -17 9 7 16 4 27 -11 8 -11 18 -20 23
-19 21 4 28 -2 14 -12 -12 -9 -12 -10 4 -5 14 5 17 3 12 -11 -6 -15 -5 -16 5
-5 10 9 10 15 1 24 -17 17 -15 31 2 25 8 -3 17 1 19 9 3 9 4 7 3 -3 -1 -10 -9
-17 -17 -15 -11 3 -11 1 -2 -9 10 -10 16 -9 30 2 16 13 17 12 5 -2 -16 -21 1
-36 41 -34 25 1 26 -1 12 -11 -15 -11 -15 -13 2 -22 15 -9 16 -13 4 -24 -12
-11 -13 -11 -6 1 6 10 4 12 -5 6 -9 -6 -11 -4 -5 5 6 9 4 11 -5 5 -9 -6 -11
-4 -5 5 5 9 4 11 -4 6 -6 -4 -14 0 -17 8 -3 9 -10 13 -16 10 -5 -3 7 -19 26
-36 23 -19 33 -35 29 -46 -4 -14 -3 -15 5 -2 6 8 8 18 5 24 -3 5 -1 6 5 2 5
-3 12 -3 15 1 2 5 3 3 1 -3 -4 -17 16 -33 32 -27 8 3 14 0 14 -7 0 -6 -4 -9
-9 -5 -6 3 -9 -4 -8 -15 1 -10 7 -22 14 -24 14 -6 7 -35 -11 -49 -7 -5 -5 -7
4 -4 8 2 21 14 28 28 l14 24 -7 -25 c-3 -14 -7 -29 -8 -35 -2 -5 -6 -16 -10
-22 -5 -8 -4 -13 2 -13 10 0 15 14 12 33 0 4 4 7 9 7 6 0 8 -13 5 -30 -3 -17
-1 -30 5 -30 6 0 3 -11 -5 -24 -14 -21 -14 -24 0 -30 9 -3 14 -10 11 -15 -7
-11 20 -8 31 4 4 4 3 5 -3 2 -6 -3 -11 0 -11 8 0 8 4 15 9 15 4 0 8 -5 8 -11
0 -5 6 -7 13 -3 10 6 10 4 0 -7 -17 -17 -17 -32 0 -23 8 5 8 3 -2 -9 -11 -14
-11 -18 3 -23 16 -6 13 -24 -5 -24 -6 0 -7 5 -3 12 4 7 3 8 -4 4 -7 -4 -10 1
-7 14 2 11 0 20 -5 20 -11 0 -9 -43 3 -51 5 -4 4 -16 -3 -29 -8 -15 -8 -20 -1
-16 6 4 11 2 11 -3 0 -6 4 -11 8 -11 5 0 9 7 9 15 0 8 -4 12 -9 9 -4 -3 -8 -1
-8 5 0 18 18 21 25 3 19 -44 10 -95 -11 -60 -5 7 -2 8 7 3 8 -5 11 -5 7 -1 -3
4 -10 8 -15 8 -4 0 -13 4 -19 9 -7 5 -11 3 -11 -6 0 -8 3 -13 6 -11 21 13 39
-57 21 -80 -10 -11 -10 -14 0 -14 8 0 10 -3 7 -6 -3 -4 -2 -15 3 -24 7 -13 5
-22 -7 -31 -15 -12 -16 -12 -10 5 6 16 5 17 -8 6 -13 -11 -12 -15 9 -31 13
-11 28 -19 33 -19 4 0 1 5 -7 10 -8 5 -10 10 -5 10 6 0 17 -5 25 -10 10 -6 11
-10 3 -10 -7 0 -13 -7 -13 -15 0 -8 -5 -15 -11 -15 -5 0 -7 6 -3 13 5 7 0 6
-11 -3 -17 -14 -18 -13 -11 5 6 16 5 17 -5 8 -10 -10 -9 -16 1 -29 16 -18 22
-44 11 -44 -9 0 -7 -34 4 -67 4 -13 11 -20 16 -17 5 3 9 0 9 -5 0 -21 -18 -11
-39 21 -17 27 -20 29 -18 11 0 -12 5 -19 9 -17 12 8 10 -10 -3 -23 -8 -8 -8
-16 0 -30 11 -17 12 -17 6 3 -4 14 -1 21 10 21 8 0 15 -4 15 -9 0 -5 5 -6 12
-2 7 4 8 3 4 -5 -4 -6 -12 -9 -17 -6 -5 4 -9 -1 -9 -9 0 -10 6 -13 18 -9 9 3
14 3 11 -1 -4 -4 -17 -9 -29 -11 -28 -5 -35 -12 -35 -33 0 -10 -7 -16 -19 -15
-25 2 -6 -16 22 -22 23 -4 31 10 10 18 -7 3 -3 4 9 4 21 -1 21 -3 9 -22 -8
-11 -19 -19 -24 -18 -6 1 -13 -5 -16 -13 -4 -12 -2 -15 9 -10 13 5 14 2 3 -17
-7 -12 -12 -25 -13 -29 0 -3 -10 -18 -22 -32 -13 -14 -23 -29 -22 -32 0 -3 -9
-14 -20 -23 -11 -10 -17 -22 -13 -26 4 -5 -1 -5 -10 -2 -11 4 -17 2 -15 -6 1
-7 -8 -11 -20 -11 -13 1 -23 -3 -23 -8 0 -6 7 -8 15 -4 8 3 15 1 15 -4 0 -6
-4 -10 -9 -10 -6 0 -25 -14 -43 -30 -99 -92 -315 -164 -543 -184 -86 -8 -406
-9 -413 -2 -8 9 -9 1636 -1 1636 4 0 6 8 5 18 0 10 5 16 14 13 8 -2 23 -3 32
-3 10 0 20 -4 24 -9 9 -16 34 10 27 28 -4 11 -2 14 5 9 7 -4 12 -2 12 3 0 6 5
11 10 11 6 0 3 -12 -7 -27z m159 12 c16 3 49 -23 34 -26 -25 -5 -33 -4 -48 9
-10 8 -18 20 -18 26 0 8 2 8 8 0 4 -6 15 -10 24 -9z m194 -3 c-10 -2 -22 0
-28 6 -6 6 0 7 19 4 21 -5 23 -7 9 -10z m-102 -11 c17 -19 17 -19 0 -17 -9 2
-18 10 -20 19 -3 21 -1 21 20 -2z m-810 -20 c-2 -3 -12 3 -22 13 -16 17 -16
18 5 5 12 -7 20 -15 17 -18z m600 21 c3 -5 -1 -9 -9 -9 -8 0 -15 4 -15 9 0 4
4 8 9 8 6 0 12 -4 15 -8z m-564 -27 c-5 -7 -9 -14 -7 -16 1 -2 0 -3 -2 -1 -11
7 -7 29 5 29 9 0 11 -4 4 -12z m1037 -1 c-3 -3 -12 -4 -19 -1 -8 3 -5 6 6 6
11 1 17 -2 13 -5z m68 -8 c7 3 15 1 19 -4 3 -5 -5 -8 -16 -7 -12 1 -23 7 -24
14 -1 6 0 7 2 2 3 -6 11 -8 19 -5z m50 -6 c3 -5 1 -10 -4 -10 -6 0 -11 5 -11
10 0 6 2 10 4 10 3 0 8 -4 11 -10z m225 -160 c0 -5 -5 -10 -11 -10 -5 0 -7 5
-4 10 3 6 8 10 11 10 2 0 4 -4 4 -10z m-1398 -85 c-8 -16 -9 -16 -15 -1 -4 10
-3 15 3 11 6 -3 10 -1 10 6 0 7 3 10 6 6 3 -3 2 -13 -4 -22z m1479 8 c13 -16
12 -17 -3 -4 -10 7 -18 15 -18 17 0 8 8 3 21 -13z m24 -23 c-3 -5 -14 -10 -23
-9 -14 0 -13 2 3 9 27 11 27 11 20 0z m-1485 -42 c0 -11 -28 -10 -35 1 -3 6 4
9 15 8 11 -1 20 -5 20 -9z m1500 -18 c0 -5 -4 -10 -10 -10 -5 0 -10 5 -10 10
0 6 5 10 10 10 6 0 10 -4 10 -10z m-1503 -15 c4 -4 3 -5 -4 -2 -6 4 -13 2 -15
-5 -2 -6 -10 -8 -16 -4 -7 4 -10 11 -7 16 6 10 31 7 42 -5z m1563 -29 c0 -2
-6 -9 -14 -15 -11 -9 -16 -9 -22 0 -4 7 -3 9 4 5 6 -3 13 -2 17 4 6 10 15 14
15 6z m1 -39 c-6 -8 -8 -17 -4 -21 4 -4 0 -4 -10 0 -17 6 -17 7 0 20 23 17 28
18 14 1z m-1558 -27 c-3 -12 -8 -19 -11 -16 -5 6 5 36 12 36 2 0 2 -9 -1 -20z
m1543 -17 c16 -21 18 -37 4 -28 -9 6 -14 -8 -11 -28 1 -5 -3 -6 -9 -2 -14 9
-13 32 3 38 9 3 9 7 -2 20 -7 10 -10 17 -6 17 4 0 14 -8 21 -17z m-1554 -17
c7 4 8 2 4 -5 -9 -13 -26 -5 -25 12 0 9 2 8 6 -1 2 -6 10 -9 15 -6z m1603 -24
c-3 -3 -11 0 -18 7 -9 10 -8 11 6 5 10 -3 15 -9 12 -12z m15 -72 c0 -5 -7 -7
-15 -4 -8 4 -15 8 -15 10 0 2 7 4 15 4 8 0 15 -4 15 -10z m-1607 -30 c-3 -12
-8 -19 -11 -16 -5 6 5 36 12 36 2 0 2 -9 -1 -20z m1610 -11 c-4 -15 -8 -17
-14 -8 -6 11 4 28 18 29 0 0 -1 -9 -4 -21z m-1621 -23 c7 4 8 2 4 -5 -9 -13
-26 -5 -25 12 0 9 2 8 6 -1 2 -6 10 -9 15 -6z m1637 -80 c9 -11 9 -16 -1 -22
-7 -4 -10 -4 -6 1 4 4 3 14 -3 22 -6 7 -9 13 -6 13 2 0 10 -6 16 -14z m-28 -8
c1 -7 2 -20 3 -28 0 -8 7 -14 14 -12 8 1 11 -2 7 -8 -5 -8 -12 -7 -22 2 -14
11 -15 10 -9 -10 4 -12 3 -22 -2 -22 -11 0 -9 46 2 57 3 3 1 12 -5 20 -9 9 -8
13 0 13 6 0 12 -6 12 -12z m-1598 -38 c-3 -12 -8 -19 -11 -16 -5 6 5 36 12 36
2 0 2 -9 -1 -20z m-11 -34 c7 4 8 2 4 -5 -9 -13 -26 -5 -25 12 0 9 2 8 6 -1 2
-6 10 -9 15 -6z m1606 -29 c-1 -2 4 -12 12 -23 10 -14 10 -16 0 -7 -11 10 -17
10 -29 0 -12 -8 -11 -6 2 9 9 11 15 24 12 27 -3 4 -2 5 1 3 3 -2 4 -6 2 -9z
m35 -2 c-3 -9 -8 -14 -10 -11 -3 3 -2 9 2 15 9 16 15 13 8 -4z m-1630 -95 c-3
-12 -8 -19 -11 -16 -5 6 5 36 12 36 2 0 2 -9 -1 -20z m1602 -23 c-9 -5 -19 -6
-22 -3 -4 3 0 6 7 6 9 0 7 5 -6 15 -18 14 -17 14 9 3 24 -10 25 -13 12 -21z
m-1613 -11 c7 4 8 2 4 -5 -9 -13 -26 -5 -25 12 0 9 2 8 6 -1 2 -6 10 -9 15 -6z
m1608 -17 c0 8 2 12 5 9 8 -8 -5 -36 -20 -42 -8 -3 -12 2 -10 12 2 9 4 22 4
27 1 6 6 3 11 -5 8 -12 10 -12 10 -1z m-1608 -23 c7 4 8 2 4 -5 -9 -13 -26 -5
-25 12 0 9 2 8 6 -1 2 -6 10 -9 15 -6z m8 -61 c0 -5 -5 -3 -10 5 -5 8 -10 20
-10 25 0 6 5 3 10 -5 5 -8 10 -19 10 -25z m-18 -80 c-8 -16 -9 -16 -15 -1 -4
10 -3 15 3 11 6 -3 10 -1 10 6 0 7 3 10 6 6 3 -3 2 -13 -4 -22z m1597 -5 c-7
-5 -19 -6 -26 -3 -11 5 -12 8 -2 13 7 5 19 6 26 3 11 -5 12 -8 2 -13z m-1579
-53 c0 -5 -9 -7 -21 -4 -13 3 -19 1 -16 -6 2 -7 9 -12 15 -12 5 0 13 -3 16 -7
3 -5 3 -6 0 -4 -9 7 -33 -18 -26 -28 3 -5 0 -6 -7 -1 -9 5 -10 10 -2 18 7 7 7
14 0 23 -6 7 -8 18 -5 23 8 12 46 10 46 -2z m15 -56 c3 -5 0 -13 -6 -17 -7 -4
-9 -3 -5 4 3 5 0 13 -6 15 -9 4 -10 6 -1 6 6 1 14 -3 18 -8z m-33 -126 c-8
-16 -9 -16 -15 -1 -4 10 -3 15 3 11 6 -3 10 -1 10 6 0 7 3 10 6 6 3 -3 2 -13
-4 -22z m18 -57 c0 -11 -28 -10 -35 1 -3 6 4 9 15 8 11 -1 20 -5 20 -9z m-3
-33 c4 -4 2 -5 -4 -1 -7 4 -13 2 -13 -3 0 -6 -4 -11 -8 -11 -5 0 -9 6 -9 14 0
15 21 16 34 1z m18 -24 c3 -5 0 -13 -6 -17 -7 -4 -9 -3 -5 4 3 5 0 13 -6 15
-9 4 -10 6 -1 6 6 1 14 -3 18 -8z m1380 -251 c-2 -29 -10 -33 -26 -13 -8 9 -9
14 -3 10 7 -4 14 0 18 8 8 21 13 19 11 -5z m-174 -33 c-6 -8 -7 -18 -3 -22 4
-5 1 -5 -6 -1 -10 6 -10 11 -1 22 6 8 14 14 16 14 3 0 0 -6 -6 -13z m-121 -42
c-24 -25 -16 -36 9 -12 11 10 13 10 7 0 -4 -7 -2 -13 3 -13 6 0 11 -8 11 -17
-1 -16 -2 -16 -15 1 -9 12 -15 15 -15 7 0 -11 -3 -11 -16 0 -10 8 -18 9 -22 2
-4 -5 -15 -9 -24 -7 -10 1 -20 -2 -24 -7 -7 -12 -44 8 -43 24 0 9 2 9 6 -1 2
-6 9 -10 14 -6 5 3 9 0 9 -6 0 -7 7 -5 16 4 8 9 20 14 25 11 13 -9 50 15 43
27 -4 6 -3 8 4 4 6 -3 13 -2 17 4 3 5 9 10 12 10 4 0 -4 -11 -17 -25z m-504
-2 c-4 -22 15 -54 26 -46 14 8 40 -6 32 -18 -4 -8 -9 -7 -14 2 -7 10 -12 10
-23 1 -17 -14 -28 -6 -20 16 4 9 2 13 -4 9 -8 -5 -11 33 -4 51 4 9 9 -1 7 -15z
m55 -6 c-10 -9 -11 -8 -5 6 3 10 9 15 12 12 3 -3 0 -11 -7 -18z m266 8 c0 -8
-4 -12 -9 -9 -5 3 -6 10 -3 15 9 13 12 11 12 -6z m74 -2 c13 -16 12 -17 -3 -4
-10 7 -18 15 -18 17 0 8 8 3 21 -13z m-431 3 c0 -2 -8 -10 -17 -17 -16 -13
-17 -12 -4 4 13 16 21 21 21 13z m-555 -16 c3 -6 -1 -7 -9 -4 -18 7 -21 14 -7
14 6 0 13 -4 16 -10z m175 6 c0 -2 -7 -7 -16 -10 -8 -3 -12 -2 -9 4 6 10 25
14 25 6z m60 0 c0 -2 -7 -7 -16 -10 -8 -3 -12 -2 -9 4 6 10 25 14 25 6z m443
-14 c-10 -10 -20 -17 -22 -16 -6 5 20 34 30 34 5 0 1 -8 -8 -18z m67 8 c8 -5
12 -11 10 -14 -3 -2 -14 2 -24 10 -22 15 -10 19 14 4z m50 -18 c0 -8 -1 -13
-3 -11 -1 2 -9 12 -16 22 -12 15 -12 17 3 11 9 -3 16 -13 16 -22z m-271 -7 c7
4 8 0 4 -11 -5 -13 -3 -15 7 -9 9 6 11 4 6 -4 -6 -9 -12 -8 -26 4 -12 11 -19
13 -22 5 -2 -8 -8 -7 -17 4 -12 14 -11 16 5 9 17 -6 18 -5 4 13 -14 19 -14 19
7 1 12 -11 26 -16 32 -12z m-406 2 c-26 -12 -30 -24 -8 -24 8 0 15 4 15 9 0 4
7 8 15 8 8 0 15 -5 15 -11 0 -5 -4 -8 -9 -4 -5 3 -12 1 -15 -4 -4 -5 -14 -8
-24 -6 -9 1 -23 -3 -31 -9 -10 -8 -9 -3 2 15 10 14 15 27 13 30 -2 2 8 5 22 5
26 2 26 1 5 -9z m67 3 c-11 -7 -12 -10 -2 -10 8 0 12 -5 10 -11 -5 -14 -23
-12 -24 4 -1 18 6 27 19 27 7 0 6 -4 -3 -10z m90 -22 c0 -19 -16 -5 -17 14 -2
18 0 20 7 8 5 -8 10 -18 10 -22z m20 28 c0 -3 -4 -8 -10 -11 -5 -3 -10 -1 -10
4 0 6 5 11 10 11 6 0 10 -2 10 -4z m34 -11 c-4 -11 -2 -13 9 -10 8 4 17 -1 21
-11 5 -14 4 -15 -8 -5 -10 9 -16 9 -21 1 -5 -8 -11 -8 -19 -1 -7 6 -17 7 -21
3 -5 -4 -5 -1 -1 6 4 7 12 10 17 7 5 -4 9 1 9 9 0 9 4 16 10 16 5 0 7 -7 4
-15z m86 4 c0 -5 5 -7 10 -4 6 3 10 1 10 -4 0 -16 -16 -13 -30 4 -9 10 -9 15
-1 15 6 0 11 -5 11 -11z m280 1 c0 -5 -5 -10 -11 -10 -5 0 -7 5 -4 10 3 6 8
10 11 10 2 0 4 -4 4 -10z m-450 -22 c0 -5 -9 -4 -20 2 -11 6 -20 12 -20 14 0
2 9 2 20 -1 11 -3 20 -9 20 -15z"/>
<path d="M385 4580 c-3 -6 1 -7 9 -4 18 7 21 14 7 14 -6 0 -13 -4 -16 -10z"/>
<path d="M1495 4450 c1 -11 5 -23 10 -27 4 -5 5 -2 1 5 -10 17 4 15 28 -5 19
-16 19 -16 7 -1 -7 9 -9 23 -5 29 4 8 3 9 -5 5 -6 -4 -18 -3 -25 3 -10 8 -12
6 -11 -9z"/>
<path d="M1110 4446 c0 -2 8 -10 18 -17 15 -13 16 -12 3 4 -13 16 -21 21 -21
13z"/>
<path d="M1421 4434 c0 -11 3 -14 6 -6 3 7 2 16 -1 19 -3 4 -6 -2 -5 -13z"/>
<path d="M1583 4443 c-15 -6 -17 -29 -3 -38 6 -4 7 1 3 11 -5 13 -3 15 7 9 9
-6 11 -4 5 5 -5 8 -3 11 6 8 8 -3 13 -13 11 -23 -2 -10 1 -14 7 -10 16 9 13
32 -5 39 -9 3 -16 6 -17 5 -1 0 -8 -3 -14 -6z"/>
<path d="M1690 4408 c0 -5 10 -6 21 -3 14 5 19 4 15 -4 -5 -7 -1 -8 11 -4 15
6 16 4 5 -9 -10 -13 -10 -18 -1 -24 7 -4 10 -3 7 2 -7 10 17 35 26 28 3 -2 2
2 -4 8 -12 14 -80 19 -80 6z"/>
<path d="M1788 4386 c-22 -16 -23 -23 -3 -23 8 0 13 3 10 5 -3 3 0 11 6 19 14
16 9 16 -13 -1z"/>
<path d="M1910 4356 c0 -2 8 -10 18 -17 15 -13 16 -12 3 4 -13 16 -21 21 -21
13z"/>
<path d="M2008 4238 c-21 -21 -11 -24 15 -4 10 8 15 16 10 18 -4 3 -16 -3 -25
-14z"/>
<path d="M2060 4229 c0 -5 5 -7 10 -4 6 3 10 8 10 11 0 2 -4 4 -10 4 -5 0 -10
-5 -10 -11z"/>
<path d="M2110 4151 c0 -6 6 -11 13 -11 8 0 7 -4 -3 -10 -10 -6 -11 -10 -2
-10 6 0 12 -7 12 -15 0 -8 4 -15 8 -15 5 0 9 7 9 15 0 8 -4 15 -9 15 -5 0 -7
4 -4 9 3 5 -1 14 -9 21 -10 9 -15 9 -15 1z"/>
<path d="M2151 4081 c-8 -5 -9 -11 -3 -15 5 -3 12 1 16 9 6 17 6 18 -13 6z"/>
<path d="M2235 3720 c3 -5 8 -10 11 -10 2 0 4 5 4 10 0 6 -5 10 -11 10 -5 0
-7 -4 -4 -10z"/>
<path d="M2185 3230 c-3 -6 1 -7 9 -4 18 7 21 14 7 14 -6 0 -13 -4 -16 -10z"/>
<path d="M2200 3189 c0 -5 5 -7 10 -4 6 3 10 8 10 11 0 2 -4 4 -10 4 -5 0 -10
-5 -10 -11z"/>
<path d="M2180 3160 c-8 -5 -11 -12 -8 -16 4 -3 14 1 23 10 18 17 9 21 -15 6z"/>
<path d="M2150 3130 c0 -5 5 -10 11 -10 5 0 7 5 4 10 -3 6 -8 10 -11 10 -2 0
-4 -4 -4 -10z"/>
<path d="M1364 4472 c4 -3 14 -7 22 -8 9 -1 13 0 10 4 -4 3 -14 7 -22 8 -9 1
-13 0 -10 -4z"/>
<path d="M5040 4690 c-5 -3 -10 -25 -12 -50 -2 -25 -9 -55 -16 -66 -6 -12 -8
-25 -4 -29 4 -5 1 -5 -5 -1 -20 11 -15 -2 10 -26 12 -13 26 -22 31 -20 4 1 14
-2 21 -8 9 -8 15 -8 20 0 3 5 1 10 -4 10 -6 0 -11 5 -11 12 0 6 3 8 7 5 3 -4
13 -1 22 6 14 10 14 10 3 -4 -10 -13 -10 -19 2 -28 17 -14 36 -11 54 9 8 8 11
10 8 3 -4 -6 1 -18 9 -27 8 -8 11 -17 6 -20 -5 -4 -11 -1 -13 6 -2 6 -12 12
-22 14 -13 2 -14 -1 -7 -10 6 -7 8 -15 6 -18 -3 -3 6 -4 20 -3 14 2 32 -3 40
-12 12 -11 15 -11 15 -1 0 10 3 10 9 -2 6 -8 8 -17 5 -21 -2 -4 0 -10 6 -14 5
-3 10 -11 10 -16 0 -6 -5 -7 -12 -3 -6 4 -8 3 -5 -3 5 -7 52 -10 52 -3 0 1 8
3 18 5 9 2 15 -1 11 -6 -3 -5 -9 -7 -14 -4 -4 3 -13 -2 -19 -9 -8 -10 -9 -16
-1 -21 14 -9 13 -28 -2 -22 -7 2 -12 9 -11 15 1 5 -4 13 -12 16 -10 3 -12 0
-8 -11 4 -10 2 -14 -4 -10 -5 3 -10 0 -10 -8 0 -18 14 -20 19 -4 2 7 10 4 18
-7 8 -10 10 -15 3 -11 -6 4 -14 3 -17 -2 -3 -5 1 -11 9 -15 8 -3 19 3 24 12 6
9 11 12 11 5 0 -6 -4 -14 -9 -17 -13 -8 -6 -42 8 -38 6 1 11 -3 11 -9 0 -6 -7
-9 -15 -6 -8 4 -17 2 -20 -3 -3 -4 1 -10 7 -13 10 -3 10 -7 0 -19 -8 -10 -9
-19 -3 -22 5 -3 12 -1 14 4 3 6 4 5 3 -2 -2 -7 -9 -12 -15 -10 -6 1 -11 -5
-11 -14 0 -8 5 -12 10 -9 6 4 9 1 8 -7 -2 -7 3 -12 10 -10 6 1 12 -2 12 -8 0
-5 -10 -8 -22 -6 -13 1 -23 9 -23 16 0 7 -6 14 -13 16 -7 1 -8 0 -2 -3 7 -3 5
-13 -7 -26 -10 -12 -11 -17 -3 -10 11 9 19 8 31 0 16 -12 23 -51 7 -41 -4 3
-8 -2 -8 -10 0 -9 7 -13 20 -11 11 2 20 -1 20 -7 0 -5 -7 -8 -15 -5 -8 4 -17
2 -20 -3 -4 -6 -1 -10 4 -10 6 0 11 -5 11 -11 0 -8 -4 -8 -13 -1 -8 7 -18 6
-31 -4 -11 -8 -15 -14 -10 -14 6 0 15 5 21 11 7 7 12 6 17 -6 3 -9 2 -13 -3
-10 -5 3 -12 1 -15 -4 -3 -5 1 -11 9 -15 8 -3 19 3 24 12 6 9 11 12 11 5 0 -6
-4 -14 -9 -17 -13 -8 -6 -42 8 -38 6 1 11 -3 11 -9 0 -6 -7 -9 -15 -6 -8 4
-17 2 -20 -3 -3 -4 1 -10 7 -13 10 -3 10 -7 0 -19 -8 -10 -9 -19 -3 -22 5 -3
12 -1 14 4 3 6 4 5 3 -2 -2 -7 -9 -12 -15 -11 -6 2 -11 -4 -11 -13 0 -8 5 -12
10 -9 6 4 9 1 8 -7 -2 -7 3 -12 10 -11 6 2 12 -1 12 -7 0 -5 -10 -8 -22 -6
-13 1 -23 9 -23 16 0 7 -6 14 -13 16 -7 1 -8 0 -2 -3 7 -3 5 -13 -7 -26 -10
-12 -11 -17 -3 -10 11 9 19 8 31 0 16 -12 23 -51 7 -41 -4 3 -8 -2 -8 -10 0
-9 7 -13 20 -11 11 2 20 -1 20 -7 0 -5 -7 -8 -15 -5 -8 4 -17 2 -20 -3 -4 -6
-1 -10 4 -10 6 0 11 -5 11 -11 0 -8 -4 -8 -13 -1 -8 7 -18 6 -31 -4 -11 -8
-15 -14 -10 -14 6 0 15 5 21 11 7 7 12 6 17 -6 3 -9 2 -13 -3 -10 -5 3 -12 1
-15 -4 -3 -5 1 -11 9 -15 8 -3 19 3 24 12 6 9 11 12 11 5 0 -6 -4 -14 -9 -17
-13 -8 -6 -42 8 -39 6 2 11 -2 11 -8 0 -6 -7 -9 -15 -6 -8 4 -17 2 -20 -3 -3
-4 1 -10 7 -13 10 -3 10 -7 0 -19 -8 -10 -9 -19 -3 -22 5 -3 12 -1 14 4 3 6 4
5 3 -2 -2 -7 -9 -12 -15 -11 -6 2 -11 -4 -11 -13 0 -8 5 -12 10 -9 6 4 9 1 8
-7 -2 -7 3 -12 10 -11 6 2 12 -1 12 -7 0 -5 -10 -8 -22 -6 -13 1 -23 9 -23 16
0 7 -6 14 -13 16 -7 1 -8 0 -2 -3 7 -3 5 -13 -7 -26 -10 -12 -11 -17 -3 -10
11 9 19 8 31 0 16 -12 23 -51 7 -41 -4 3 -8 -2 -8 -10 0 -9 7 -13 20 -11 11 2
20 -1 20 -7 0 -5 -7 -8 -15 -5 -8 4 -17 2 -20 -3 -4 -6 -1 -10 4 -10 6 0 11
-5 11 -11 0 -8 -4 -8 -13 -1 -8 7 -18 6 -31 -4 -11 -8 -15 -14 -10 -14 6 0 15
5 21 11 7 7 12 6 17 -6 3 -9 2 -13 -3 -10 -5 3 -12 1 -15 -4 -3 -5 1 -11 9
-15 8 -3 19 3 24 12 6 9 11 12 11 5 0 -6 -4 -14 -9 -17 -13 -8 -6 -42 8 -39 6
2 11 -2 11 -8 0 -6 -7 -9 -15 -6 -8 4 -17 2 -20 -3 -3 -4 1 -10 7 -13 10 -3
10 -7 0 -19 -8 -10 -9 -19 -3 -22 5 -3 12 -1 14 4 3 6 4 5 3 -2 -2 -7 -9 -12
-15 -11 -6 2 -11 -4 -11 -13 0 -8 5 -12 10 -9 6 4 9 1 8 -7 -2 -7 3 -12 10
-11 6 2 12 -1 12 -7 0 -5 -10 -8 -22 -6 -13 1 -23 9 -23 16 0 7 -6 14 -13 16
-7 1 -8 0 -2 -3 7 -3 5 -13 -7 -26 -10 -12 -11 -17 -3 -10 22 17 58 -10 41
-31 -10 -11 -7 -18 11 -31 14 -11 17 -15 6 -12 -10 4 -20 2 -23 -3 -4 -6 -1
-10 4 -10 6 0 11 -5 11 -10 0 -7 -7 -7 -21 1 -16 8 -24 8 -33 -1 -8 -8 -6 -9
8 -4 13 5 17 4 12 -4 -3 -6 -1 -14 5 -18 8 -5 9 -3 4 6 -5 9 -4 11 4 6 6 -4 9
-12 6 -17 -4 -5 -1 -9 4 -9 6 0 11 5 11 12 0 6 3 8 7 4 5 -4 -1 -14 -11 -22
-14 -10 -16 -14 -5 -14 12 0 12 -2 -1 -10 -13 -9 -13 -10 0 -11 8 -1 18 -1 23
0 4 0 7 -3 7 -8 0 -5 -11 -8 -24 -7 -13 0 -22 5 -19 9 3 5 -4 3 -15 -4 -12 -7
-18 -17 -15 -22 3 -5 9 -3 14 4 5 8 9 11 10 7 1 -5 2 -11 3 -15 1 -5 5 -14 10
-21 7 -12 4 -12 -15 -1 -21 11 -23 11 -11 -4 11 -13 10 -17 -5 -26 -10 -6 -13
-11 -8 -11 6 0 15 4 20 9 6 6 16 3 25 -7 13 -14 12 -15 -3 -9 -9 3 -19 2 -22
-3 -6 -9 8 -14 28 -11 5 1 6 -3 3 -8 -4 -5 0 -12 6 -14 10 -4 10 -6 0 -6 -7
-1 -11 -5 -8 -9 3 -5 -1 -9 -9 -9 -8 0 -12 4 -9 9 3 4 0 8 -5 8 -6 0 -11 -5
-11 -12 0 -6 -3 -8 -7 -5 -3 4 -11 3 -17 -3 -7 -5 -49 -10 -94 -12 -46 -1 -87
-5 -92 -8 -5 -3 -11 -26 -13 -50 -6 -55 -16 -82 -28 -74 -5 3 -9 0 -9 -5 0 -6
5 -11 10 -11 6 0 -3 -13 -20 -30 -34 -33 -36 -37 -15 -37 8 0 12 4 9 8 -6 10
65 4 74 -6 4 -5 -1 -5 -10 -2 -10 3 -20 1 -24 -6 -4 -7 -4 -9 1 -5 4 4 14 0
22 -10 10 -12 13 -13 11 -2 -3 16 23 21 34 6 4 -6 13 -5 22 3 13 11 19 11 31
1 11 -9 18 -10 28 -1 14 11 27 5 27 -11 0 -5 -5 -6 -12 -2 -7 4 -8 3 -4 -5 6
-9 11 -9 22 0 12 10 12 14 2 20 -7 5 14 8 50 8 50 -1 62 -4 62 -18 1 -14 2
-14 11 2 5 9 20 17 32 17 18 0 19 -2 7 -10 -9 -6 -10 -10 -3 -10 6 0 15 5 18
10 4 6 11 7 17 4 7 -5 5 -12 -7 -20 -16 -12 -16 -13 3 -11 11 0 20 6 19 11 -2
9 11 11 44 7 5 0 7 -6 3 -13 -5 -7 -3 -8 6 -3 18 11 -15 35 -41 30 -11 -2 -17
0 -14 5 3 5 -4 7 -15 5 -24 -5 -27 10 -4 19 13 5 14 9 4 21 -11 13 -10 14 4 9
10 -4 15 -12 12 -20 -5 -14 17 -37 27 -28 4 4 19 -1 34 -11 l28 -18 -24 26
c-13 14 -28 24 -35 23 -6 -2 -7 -1 -3 2 4 2 2 11 -5 20 -10 14 -9 14 8 -1 11
-9 24 -14 29 -10 4 5 5 3 1 -4 -8 -15 30 -38 39 -23 4 6 11 8 16 5 5 -4 9 2
10 12 0 16 1 16 8 -1 5 -14 10 -16 15 -7 4 6 2 20 -6 29 -12 15 -11 16 4 3 18
-13 19 -44 3 -58 -4 -5 -5 -3 -2 4 6 10 -11 11 -33 3 -3 -1 -8 -2 -12 -1 -5 0
-8 -4 -8 -9 0 -6 11 -8 25 -6 13 3 27 0 31 -5 3 -5 11 -6 17 -2 7 4 20 8 30 9
9 1 19 3 22 4 13 7 31 5 37 -5 5 -6 11 -6 20 3 18 18 45 15 50 -6 3 -10 12
-19 21 -19 9 0 14 4 11 9 -3 5 -10 6 -15 3 -5 -4 -9 1 -9 9 0 17 20 17 32 1 5
-6 8 -4 8 5 0 13 1 13 10 0 9 -13 10 -13 10 0 0 13 1 13 11 0 9 -13 10 -13 6
0 -2 9 -15 15 -34 14 -20 0 -30 4 -30 15 0 20 16 41 31 41 6 0 3 -5 -6 -11
-10 -5 -18 -15 -18 -21 0 -6 3 -8 7 -5 3 4 13 1 21 -6 13 -10 15 -9 10 4 -4 9
-1 16 7 16 7 0 11 -7 8 -14 -3 -8 -2 -13 3 -11 27 7 90 -32 76 -47 -4 -5 -2
-5 5 -1 6 3 10 15 8 26 -2 11 1 22 6 25 5 4 6 11 3 17 -4 7 -2 8 5 4 9 -6 9
-11 0 -22 -9 -11 -9 -14 0 -14 7 0 9 -5 5 -12 -4 -7 -4 -10 1 -6 4 4 16 3 27
-3 18 -9 18 -8 8 10 -6 12 -13 21 -16 21 -3 0 -2 -5 2 -12 4 -7 3 -8 -5 -4 -8
6 -9 12 -2 20 7 9 7 17 -2 26 -10 12 -9 12 5 1 10 -7 16 -17 13 -21 -5 -8 27
-24 50 -25 6 -1 20 -7 33 -14 22 -12 23 -11 12 8 -10 20 -7 25 14 22 5 -1 6 6
2 15 -5 14 -4 15 9 4 8 -7 15 -9 15 -5 0 4 8 1 17 -6 14 -12 16 -12 11 2 -4 9
-1 16 7 16 7 0 11 -7 8 -14 -3 -8 -2 -13 3 -11 27 7 90 -32 76 -47 -4 -5 -2
-5 5 -1 6 3 10 15 8 26 -2 11 1 22 6 25 5 4 6 11 3 17 -4 7 -2 8 5 4 9 -6 9
-11 0 -22 -9 -11 -9 -14 0 -14 7 0 10 -4 7 -9 -4 -5 2 -8 11 -7 10 2 21 -2 25
-8 6 -8 8 -8 8 0 0 6 -8 18 -17 25 -14 12 -16 12 -8 0 5 -10 4 -12 -4 -7 -8 6
-9 12 -2 20 7 9 7 17 -2 26 -10 12 -9 12 5 1 10 -7 16 -17 13 -21 -5 -8 27
-24 50 -25 6 -1 20 -6 32 -13 19 -11 22 -10 17 2 -5 13 -2 13 19 3 14 -6 23
-16 20 -21 -4 -5 -1 -6 6 -2 14 9 5 26 -15 26 -8 0 -13 4 -10 9 3 4 -14 7 -39
6 -32 -2 -48 2 -57 13 -10 14 -10 15 2 5 16 -15 34 -17 25 -4 -3 5 0 13 6 17
7 4 9 3 5 -4 -3 -6 -2 -13 4 -17 5 -3 10 0 10 7 0 8 3 9 8 3 11 -16 35 -18 29
-2 -3 8 3 13 18 13 13 0 22 -3 19 -7 -2 -5 4 -13 15 -19 13 -7 22 -7 26 0 4 6
11 8 16 5 5 -4 9 2 10 12 0 16 1 16 8 -1 5 -14 10 -16 15 -7 4 6 2 20 -6 29
-12 15 -11 16 4 3 18 -13 19 -44 3 -58 -4 -5 -5 -3 -2 4 6 10 -11 11 -33 3 -3
-1 -8 -2 -12 -1 -5 0 -8 -4 -8 -9 0 -6 11 -8 25 -6 13 3 27 0 31 -5 3 -5 11
-6 17 -2 7 4 20 8 30 9 9 1 19 3 22 4 13 7 31 5 37 -5 5 -6 11 -6 20 3 15 15
42 16 32 0 -4 -6 -3 -8 4 -4 5 3 13 0 15 -6 4 -10 6 -10 6 -1 1 7 -9 22 -21
33 -21 19 -21 21 -3 14 11 -4 25 -15 32 -23 7 -9 13 -11 13 -6 0 6 5 3 11 -5
8 -12 9 -10 4 7 -3 12 -1 24 5 28 6 3 8 10 5 15 -3 4 3 7 12 5 10 -2 18 -4 18
-5 0 -1 8 -3 18 -5 9 -2 15 1 11 6 -3 5 -9 7 -14 4 -4 -3 -11 2 -14 11 -9 24
-7 31 4 14 6 -10 10 -11 10 -2 0 6 5 12 11 12 5 0 7 -5 4 -11 -4 -6 2 -5 14 3
12 7 21 20 21 28 1 30 1 426 1 488 l-1 62 -110 0 -109 0 -8 -37 c-4 -21 -8
-42 -8 -48 -1 -5 -6 -9 -13 -7 -7 1 -12 -3 -12 -9 0 -5 -4 -7 -10 -4 -6 3 -7
-1 -4 -9 8 -21 -5 -20 -23 2 -13 15 -13 15 -4 -5 6 -12 20 -25 31 -28 11 -3
20 -11 20 -16 0 -5 -9 -4 -20 3 -16 10 -22 10 -32 -1 -9 -9 -9 -12 -1 -7 8 4
11 -1 10 -14 -1 -11 -4 -20 -8 -20 -4 0 -9 -9 -12 -20 -3 -12 -1 -18 5 -14 7
4 7 -2 3 -17 -7 -21 -6 -22 9 -10 12 10 13 17 5 27 -11 14 -5 34 12 34 5 0 9
-5 9 -11 0 -5 -5 -7 -11 -3 -7 4 -10 1 -7 -7 3 -8 12 -13 19 -11 9 2 7 -3 -4
-16 -14 -15 -15 -21 -5 -25 7 -3 0 -4 -16 -4 -21 2 -30 -3 -32 -15 -1 -11 4
-18 13 -18 13 0 13 2 2 17 -13 15 -12 15 7 5 12 -6 24 -8 28 -5 3 3 6 3 6 0 0
-8 -56 -37 -62 -32 -2 2 -3 -8 -3 -23 1 -15 -4 -33 -9 -41 -8 -11 -8 -13 1 -8
6 4 14 3 17 -2 9 -14 -20 -21 -34 -8 -10 9 -11 9 -6 -1 6 -10 -71 -12 -381
-10 l-388 3 -1 843 c0 483 3 842 8 842 5 0 8 -7 6 -17 -2 -12 5 -16 28 -18 22
-1 30 2 27 11 -3 9 2 12 18 9 12 -3 29 1 38 8 12 10 14 9 8 -8 -7 -19 -6 -19
7 -2 17 22 26 23 37 5 7 -11 9 -11 9 1 0 7 6 11 14 8 11 -4 13 -1 9 11 -6 14
-4 15 9 4 13 -10 18 -10 24 -1 4 7 3 9 -4 5 -6 -3 -13 -2 -16 3 -4 5 -2 12 4
16 6 4 8 11 4 16 -3 5 -10 7 -15 3 -5 -3 -6 -10 -3 -16 5 -7 2 -8 -6 -3 -9 6
-11 4 -5 -5 6 -9 4 -11 -5 -5 -9 6 -11 4 -5 -5 6 -9 4 -11 -5 -5 -8 5 -11 4
-7 -2 3 -5 0 -10 -8 -10 -13 0 -13 3 0 17 8 9 12 20 8 24 -5 4 -3 7 2 6 22 -5
29 1 15 11 -13 9 -12 10 2 5 10 -3 20 -1 24 5 4 6 11 6 20 -2 7 -6 11 -16 7
-22 -3 -6 -1 -7 6 -3 9 6 9 11 0 22 -9 11 -8 14 5 14 9 0 16 9 17 20 2 71 1
101 -5 107 -7 8 -924 11 -936 3z m170 -154 c0 -2 -7 -7 -16 -10 -8 -3 -12 -2
-9 4 6 10 25 14 25 6z m600 -16 c0 -5 -2 -10 -4 -10 -3 0 -8 5 -11 10 -3 6 -1
10 4 10 6 0 11 -4 11 -10z m48 -20 c-7 -10 -14 -18 -17 -18 -4 0 -8 -1 -11 -2
-3 -1 -18 -3 -35 -5 -45 -4 -47 -4 -41 -13 2 -4 -4 -8 -14 -8 -14 0 -16 4 -9
17 6 12 5 19 -4 22 -9 4 -9 6 0 6 6 1 15 -3 18 -9 3 -5 11 -10 17 -10 6 0 5 7
-3 18 -13 16 -13 16 5 2 18 -14 19 -13 13 5 -7 18 -6 19 6 3 8 -10 17 -15 20
-11 4 3 7 1 7 -6 0 -7 5 -9 10 -6 6 4 8 10 5 15 -3 4 3 7 13 6 9 0 16 5 14 12
-1 8 2 11 8 7 6 -4 5 -12 -2 -25z m-724 12 c3 -5 -1 -9 -9 -9 -8 0 -12 4 -9 9
3 4 7 8 9 8 2 0 6 -4 9 -8z m116 2 c0 -8 -19 -13 -24 -6 -3 5 1 9 9 9 8 0 15
-2 15 -3z m-42 -23 c0 -3 0 -14 1 -25 1 -15 4 -16 15 -7 11 9 18 8 30 -4 9 -9
16 -21 16 -27 0 -6 7 -5 18 3 16 13 16 12 1 -6 -9 -11 -14 -26 -12 -32 6 -18
-12 -16 -27 2 -7 8 -9 15 -6 15 4 0 2 9 -4 20 -6 11 -14 19 -18 19 -17 -3 -35
2 -29 7 3 4 2 14 -3 24 -6 12 -5 17 5 17 8 0 14 -3 13 -6z m45 -8 c-7 -2 -19
-2 -25 0 -7 3 -2 5 12 5 14 0 19 -2 13 -5z m61 -71 c3 -5 -1 -9 -9 -9 -8 0
-12 4 -9 9 3 4 7 8 9 8 2 0 6 -4 9 -8z m6 -1318 c0 -8 -19 -13 -24 -6 -3 5 1
9 9 9 8 0 15 -2 15 -3z m1273 -9 c-3 -9 -8 -14 -10 -11 -3 3 -2 9 2 15 9 16
15 13 8 -4z m-23 -55 c0 -5 -5 -10 -11 -10 -5 0 -7 5 -4 10 3 6 8 10 11 10 2
0 4 -4 4 -10z m-1280 -111 c0 -5 -4 -9 -8 -9 -5 0 -9 7 -9 15 0 8 4 12 9 9 4
-3 8 -9 8 -15z m1 -42 c-10 -9 -11 -8 -5 6 3 10 9 15 12 12 3 -3 0 -11 -7 -18z
m1267 -1 c-7 -8 -15 -12 -17 -11 -5 6 10 25 20 25 5 0 4 -6 -3 -14z m-24 -33
c2 -22 -1 -30 -9 -27 -11 4 -12 17 -6 58 2 18 11 -1 15 -31z m-1473 -226 c-10
-9 -11 -8 -5 6 3 10 9 15 12 12 3 -3 0 -11 -7 -18z m800 6 c13 -16 12 -17 -3
-4 -10 7 -18 15 -18 17 0 8 8 3 21 -13z m320 0 c13 -16 12 -17 -3 -4 -10 7
-18 15 -18 17 0 8 8 3 21 -13z m-1072 -6 c-2 -1 -13 -9 -24 -17 -19 -14 -19
-14 -6 3 7 9 18 17 24 17 6 0 8 -1 6 -3z m106 -7 c3 -6 -1 -7 -9 -4 -18 7 -21
14 -7 14 6 0 13 -4 16 -10z m280 0 c3 -6 -1 -7 -9 -4 -18 7 -21 14 -7 14 6 0
13 -4 16 -10z m175 6 c0 -2 -7 -7 -16 -10 -8 -3 -12 -2 -9 4 6 10 25 14 25 6z
m60 0 c0 -2 -7 -7 -16 -10 -8 -3 -12 -2 -9 4 6 10 25 14 25 6z m380 0 c0 -2
-7 -7 -16 -10 -8 -3 -12 -2 -9 4 6 10 25 14 25 6z m345 -6 c3 -6 -1 -7 -9 -4
-18 7 -21 14 -7 14 6 0 13 -4 16 -10z m175 6 c0 -2 -7 -7 -16 -10 -8 -3 -12
-2 -9 4 6 10 25 14 25 6z m60 0 c0 -2 -7 -7 -16 -10 -8 -3 -12 -2 -9 4 6 10
25 14 25 6z m-1674 -18 c4 -7 3 -8 -4 -4 -7 4 -12 2 -12 -5 0 -7 -3 -10 -6 -6
-6 5 3 27 11 27 2 0 7 -5 11 -12z m265 -6 c-7 -2 -18 1 -23 6 -8 8 -4 9 13 5
13 -4 18 -8 10 -11z m1441 -4 c-7 -7 -12 -8 -12 -2 0 14 12 26 19 19 2 -3 -1
-11 -7 -17z m-1662 6 c0 -8 -19 -13 -24 -6 -3 5 1 9 9 9 8 0 15 -2 15 -3z m68
-2 c10 7 14 9 10 4 -9 -11 14 -35 27 -28 6 2 4 -1 -3 -9 -11 -12 -15 -11 -24
4 -9 17 -11 17 -28 2 -12 -11 -20 -13 -25 -5 -3 5 -11 8 -16 5 -5 -4 -9 -1 -9
4 0 6 7 11 15 11 8 0 15 -5 15 -11 0 -5 4 -8 10 -4 5 3 8 11 6 18 -1 7 -1 8 2
4 2 -4 11 -2 20 5z m42 -2 c0 -5 -2 -10 -4 -10 -3 0 -8 5 -11 10 -3 6 -1 10 4
10 6 0 11 -4 11 -10z m100 -22 c0 -12 -6 -9 -26 13 -19 22 -19 22 4 8 12 -8
22 -17 22 -21z m343 19 c-26 -12 -30 -24 -8 -24 8 0 15 4 15 9 0 4 7 8 15 8 8
0 15 -5 15 -11 0 -5 -4 -8 -9 -4 -5 3 -12 1 -15 -4 -4 -5 -14 -8 -24 -6 -9 1
-23 -3 -31 -9 -10 -8 -9 -3 2 15 10 14 15 27 13 30 -2 2 8 5 22 5 26 2 26 1 5
-9z m67 3 c-11 -7 -12 -10 -2 -10 8 0 12 -5 10 -11 -5 -14 -23 -12 -24 4 -1
18 6 27 19 27 7 0 6 -4 -3 -10z m183 -4 c-4 -5 2 -7 13 -4 14 4 20 0 20 -13 0
-17 -11 -12 -65 27 -2 2 6 2 17 1 11 0 18 -5 15 -11z m151 2 c-5 -7 -2 -9 7
-6 10 4 15 -1 15 -12 0 -10 -5 -16 -11 -12 -5 4 -16 7 -24 9 -7 1 -19 7 -25
13 -8 8 -7 10 5 5 10 -4 20 -2 24 4 3 6 8 11 11 11 3 0 2 -5 -2 -12z m169 -2
c-4 -5 2 -7 13 -4 14 4 20 0 20 -13 0 -17 -11 -12 -65 27 -2 2 6 2 17 1 11 0
18 -5 15 -11z m390 1 c-26 -12 -30 -24 -8 -24 8 0 15 4 15 9 0 4 7 8 15 8 8 0
15 -5 15 -11 0 -5 -4 -8 -9 -4 -5 3 -12 1 -15 -4 -4 -5 -14 -8 -24 -6 -9 1
-23 -3 -31 -9 -10 -8 -9 -3 2 15 10 14 15 27 13 30 -2 2 8 5 22 5 26 2 26 1 5
-9z m67 3 c-11 -7 -12 -10 -2 -10 8 0 12 -5 10 -11 -5 -14 -23 -12 -24 4 -1
18 6 27 19 27 7 0 6 -4 -3 -10z m-1440 -20 c-8 -5 -17 -7 -19 -4 -3 3 1 9 9
14 8 5 17 7 19 4 3 -3 -1 -9 -9 -14z m121 6 c5 3 9 0 9 -6 0 -15 -23 -7 -26 8
-1 7 0 8 3 2 2 -5 9 -8 14 -4z m419 -8 c0 -5 -9 -4 -20 2 -11 6 -20 12 -20 14
0 2 9 2 20 -1 11 -3 20 -9 20 -15z"/>
<path d="M5244 4439 c9 -14 14 -28 10 -31 -3 -3 -1 -9 5 -12 16 -10 3 36 -15
53 -15 15 -15 14 0 -10z"/>
<path d="M4990 4626 c7 -7 13 -7 20 0 6 6 3 10 -10 10 -13 0 -16 -4 -10 -10z"/>
<path d="M4962 4613 c-6 -3 -9 -9 -6 -15 4 -7 9 -6 14 2 4 7 10 8 13 3 9 -14
-32 -55 -45 -47 -7 4 -8 2 -4 -4 4 -6 13 -9 20 -6 7 3 16 -2 20 -12 4 -11 2
-15 -7 -11 -8 3 -14 -1 -14 -8 0 -8 10 -12 24 -10 16 2 20 -1 14 -9 -11 -13 4
-45 15 -33 4 4 13 2 21 -5 8 -6 13 -7 12 -2 -4 22 2 26 14 10 12 -16 14 -16
14 -2 0 9 -4 17 -9 17 -4 1 -12 2 -17 3 -5 0 -21 13 -36 28 l-27 27 22 31 c12
16 19 31 16 31 -3 1 -9 2 -13 3 -5 1 -12 4 -18 7 -5 4 -16 4 -23 2z m57 -127
c11 -14 6 -15 -27 -7 -4 1 8 21 12 21 2 0 9 -6 15 -14z"/>
<path d="M350 4486 c0 -2 8 -10 18 -17 15 -13 16 -12 3 4 -13 16 -21 21 -21
13z"/>
<path d="M5087 4483 c-13 -12 -7 -24 11 -21 9 2 16 -3 15 -9 -2 -7 2 -13 7
-13 6 0 10 4 10 8 0 14 -36 43 -43 35z"/>
<path d="M395 4461 c-3 -5 -2 -12 3 -15 5 -3 9 1 9 9 0 17 -3 19 -12 6z"/>
<path d="M5855 4450 c-3 -5 -1 -10 4 -10 6 0 11 5 11 10 0 6 -2 10 -4 10 -3 0
-8 -4 -11 -10z"/>
<path d="M550 4429 c0 -5 5 -7 10 -4 6 3 10 8 10 11 0 2 -4 4 -10 4 -5 0 -10
-5 -10 -11z"/>
<path d="M5036 4432 c-3 -5 1 -9 9 -9 8 0 12 4 9 9 -3 4 -7 8 -9 8 -2 0 -6 -4
-9 -8z"/>
<path d="M635 4389 c-10 -15 3 -25 16 -12 7 7 7 13 1 17 -6 3 -14 1 -17 -5z"/>
<path d="M5264 4262 c4 -7 3 -12 -2 -12 -6 0 -12 -6 -15 -14 -4 -9 0 -13 10
-12 19 3 26 33 11 43 -7 3 -8 1 -4 -5z"/>
<path d="M5250 4195 c0 -9 5 -15 11 -13 6 2 11 8 11 13 0 5 -5 11 -11 13 -6 2
-11 -4 -11 -13z"/>
<path d="M5246 4158 c3 -5 10 -6 15 -3 13 9 11 12 -6 12 -8 0 -12 -4 -9 -9z"/>
<path d="M3918 4156 c-1 -2 -46 -6 -98 -9 -144 -9 -309 -54 -396 -108 -19 -11
-39 -17 -46 -13 -7 4 -10 4 -6 -1 8 -8 -33 -45 -50 -45 -5 0 -13 -7 -16 -16
-3 -8 -10 -13 -15 -10 -5 3 -12 -1 -15 -10 -3 -8 -11 -12 -17 -8 -7 4 -9 3 -6
-3 8 -12 -27 -46 -36 -36 -4 3 -7 -1 -7 -10 0 -9 -9 -22 -20 -30 -11 -8 -17
-17 -13 -20 3 -4 2 -7 -4 -7 -6 0 -13 -9 -16 -21 -4 -16 -11 -19 -29 -15 -13
3 -17 3 -10 0 17 -8 15 -22 -9 -55 -11 -16 -22 -37 -24 -47 -1 -9 -8 -16 -14
-15 -6 2 -11 -4 -11 -13 0 -9 5 -12 13 -8 6 4 3 -2 -7 -14 -11 -12 -15 -22
-10 -22 5 0 0 -7 -11 -16 -17 -13 -18 -16 -5 -24 8 -5 10 -10 5 -10 -6 0 -17
6 -24 13 -10 10 -11 8 -5 -8 7 -18 6 -19 -11 -5 -17 14 -17 14 -5 -7 12 -18
17 -20 29 -10 9 7 7 0 -4 -15 -11 -15 -24 -28 -30 -28 -5 0 0 -6 12 -13 16 -9
20 -16 13 -27 -8 -13 -10 -13 -10 2 0 13 -6 16 -27 12 -15 -3 -30 -8 -33 -11
-3 -3 5 -3 18 0 17 4 22 1 22 -14 0 -13 5 -17 18 -12 18 7 17 5 -12 -17 -11
-8 -17 -10 -14 -5 4 6 3 17 -3 25 -6 11 -9 12 -9 2 0 -8 -5 -10 -12 -6 -7 4
-5 -2 5 -13 20 -23 23 -40 4 -24 -10 8 -14 7 -14 -4 0 -8 4 -12 9 -9 9 6 5
-32 -5 -42 -4 -4 -2 -13 4 -20 7 -8 7 -14 -1 -19 -5 -3 -10 -1 -10 6 0 7 -3 9
-7 6 -3 -4 2 -17 13 -29 19 -21 19 -21 0 -14 -16 5 -17 4 -6 -9 18 -21 27 -4
25 44 -2 37 18 54 29 25 3 -8 0 -11 -10 -7 -22 8 -13 -19 11 -35 20 -13 20
-13 0 -7 -16 4 -21 0 -22 -16 -2 -16 1 -18 12 -9 10 8 15 8 21 -2 4 -7 3 -10
-1 -5 -5 4 -17 -1 -28 -10 -15 -13 -18 -14 -12 -3 8 13 7 13 -11 0 -29 -22
-30 -23 -14 -18 8 2 23 -5 33 -16 l18 -21 -6 22 c-3 12 -2 24 3 27 10 6 8 -40
-4 -69 -7 -18 -6 -19 11 -5 17 13 18 13 10 0 -6 -8 -10 -24 -10 -35 0 -21 -25
-28 -37 -10 -5 6 -8 3 -8 -7 0 -10 5 -18 11 -18 5 0 7 -5 4 -10 -4 -6 -1 -9 7
-8 8 2 12 -5 10 -17 -2 -19 -2 -19 9 -2 9 15 7 21 -8 33 -16 13 -15 13 10 3
15 -7 25 -15 22 -17 -3 -3 3 -15 12 -26 18 -21 18 -21 -4 -2 -20 17 -23 17
-23 3 0 -10 -5 -17 -12 -17 -6 0 -4 -6 6 -13 15 -11 22 -28 25 -59 1 -5 6 -8
12 -8 8 0 8 5 -1 15 -9 10 -9 15 -1 15 6 0 11 -5 11 -11 0 -5 5 -7 12 -3 6 4
8 3 4 -4 -3 -6 4 -18 16 -28 17 -12 18 -15 5 -10 -13 4 -17 2 -14 -6 2 -7 13
-12 23 -10 16 2 17 1 4 -8 -11 -7 -19 -5 -32 11 -10 12 -16 25 -13 29 3 5 -5
6 -17 2 -16 -4 -18 -7 -8 -10 25 -8 30 -25 12 -39 -15 -12 -14 -13 6 -3 18 9
23 8 28 -5 3 -8 10 -15 16 -15 5 0 6 5 3 10 -3 6 -1 10 5 10 7 0 9 -7 6 -16
-3 -9 -6 -18 -6 -20 0 -3 -4 -3 -9 0 -5 3 -14 -1 -21 -9 -10 -12 -8 -13 10
-10 16 3 20 0 16 -10 -3 -8 0 -14 7 -12 7 1 11 -4 9 -11 -1 -8 2 -11 9 -6 9 5
10 2 5 -11 -5 -15 -4 -16 9 -5 12 10 15 10 15 -3 0 -9 9 -19 20 -22 11 -4 18
-10 16 -14 -8 -12 11 -34 23 -27 6 4 9 12 5 17 -3 5 -10 6 -16 3 -7 -4 -8 -2
-4 4 3 6 -3 16 -14 22 -13 7 -19 17 -16 26 3 9 1 12 -4 9 -6 -3 -10 -1 -10 4
0 6 -6 10 -12 8 -7 -1 -12 4 -10 11 1 8 -2 11 -7 8 -5 -4 -9 3 -8 15 1 11 10
25 20 31 15 8 18 7 12 -3 -6 -9 -3 -11 9 -6 10 4 15 3 11 -4 -4 -5 -16 -7 -27
-3 -18 5 -19 4 -8 -16 7 -12 21 -25 31 -27 15 -4 18 -11 13 -27 -6 -19 -5 -19
10 -7 14 12 16 12 10 -4 -5 -13 -4 -16 5 -11 6 4 11 4 10 -1 -3 -19 2 -23 19
-14 14 7 19 6 19 -4 0 -7 -7 -11 -15 -7 -10 3 -13 1 -8 -7 4 -6 2 -20 -5 -29
-11 -13 -8 -12 9 2 19 17 22 17 22 3 0 -10 -4 -17 -10 -17 -5 0 -10 -5 -10
-11 0 -8 4 -8 14 0 10 8 16 9 21 1 3 -5 1 -10 -4 -10 -6 0 -11 -5 -11 -12 0
-6 3 -9 6 -5 3 3 16 2 28 -3 25 -9 56 3 37 14 -6 4 -11 3 -11 -2 0 -6 -9 -8
-19 -5 -15 4 -18 12 -15 31 3 20 2 23 -5 12 -8 -12 -10 -10 -8 7 1 17 4 19 14
11 7 -6 12 -17 11 -26 -2 -8 3 -17 11 -20 8 -3 11 0 7 7 -5 7 -1 9 8 5 9 -3
16 -10 16 -16 0 -5 6 -6 13 -2 6 4 3 -3 -8 -16 -11 -13 -14 -20 -8 -16 17 9
57 17 50 9 -4 -3 1 -12 11 -20 15 -13 15 -13 -4 -4 -12 6 -25 7 -29 3 -5 -4
-5 -1 -1 6 4 6 5 12 2 12 -3 0 -10 -9 -16 -19 -7 -14 -7 -22 2 -27 6 -4 8 -3
5 3 -4 6 4 11 18 11 14 0 22 -5 18 -11 -4 -6 -1 -7 7 -2 10 6 12 3 7 -11 -7
-18 -7 -18 7 -1 8 11 12 25 9 33 -3 8 0 14 7 14 6 0 8 -5 4 -12 -5 -8 -2 -9
11 -4 17 6 18 5 3 -11 -25 -30 -29 -41 -17 -49 8 -4 9 -3 5 4 -10 16 6 15 24
0 8 -7 7 -4 -3 8 -16 20 -16 21 8 34 17 9 24 19 20 29 -5 13 -4 14 7 3 11 -11
10 -16 -4 -26 -10 -7 -15 -16 -11 -19 3 -4 12 -2 20 5 7 6 16 8 20 4 3 -3 1
-6 -6 -6 -7 0 -9 -5 -6 -10 4 -6 12 -7 18 -3 18 11 37 12 37 2 0 -5 -5 -9 -11
-9 -5 0 -7 -6 -3 -12 6 -10 4 -10 -8 0 -13 10 -17 10 -22 -4 -4 -9 -4 -19 -1
-22 3 -3 5 0 5 6 0 12 39 12 41 0 1 -4 2 -12 3 -17 0 -5 5 -13 9 -18 5 -4 8
-3 6 2 -4 18 13 45 29 45 12 0 13 -3 4 -12 -15 -15 -15 -28 -1 -28 5 0 7 5 3
12 -5 8 -2 9 10 5 13 -5 17 -3 13 7 -4 9 2 14 19 14 13 0 24 -4 24 -9 0 -5 10
-9 21 -9 17 0 20 4 16 23 -6 21 -6 21 9 2 13 -17 12 -20 -3 -30 -20 -11 -29
-35 -13 -35 5 0 10 7 10 15 0 8 3 14 8 14 19 -3 33 2 28 10 -3 5 2 15 12 22
15 13 16 12 3 -3 -18 -24 -6 -23 30 3 16 11 29 18 29 15 0 -3 -18 -17 -39 -32
-22 -14 -42 -33 -45 -42 -4 -12 -2 -12 9 3 14 17 17 18 26 5 9 -13 10 -12 5 3
-5 15 0 19 20 16 4 0 10 5 14 11 5 9 9 9 14 1 6 -9 -4 -15 -24 -13 -3 0 -6 -8
-6 -19 0 -10 4 -19 8 -19 4 0 8 7 8 15 0 18 31 20 48 3 9 -9 12 -9 12 3 0 12
2 12 10 -1 6 -10 10 -11 10 -2 0 6 5 12 11 12 5 0 7 -5 3 -12 -4 -7 -3 -8 5
-4 6 4 9 11 6 16 -3 5 4 11 15 15 11 3 20 14 21 23 0 14 2 14 6 2 3 -8 16 -24
28 -35 18 -17 24 -18 34 -8 7 8 8 13 1 14 -5 1 -14 2 -20 3 -5 0 -10 4 -10 9
0 4 3 7 6 6 4 0 11 5 16 13 8 10 9 9 5 -4 -4 -10 1 -18 14 -21 12 -3 19 0 19
9 0 8 -4 14 -10 14 -5 0 -10 4 -10 8 0 5 7 9 15 9 8 0 12 -4 9 -9 -3 -4 0 -8
5 -8 6 0 10 -5 8 -12 -1 -6 10 -12 24 -13 14 -1 34 -5 43 -8 10 -4 15 -3 11 3
-3 6 -12 10 -20 10 -18 0 -26 26 -12 39 9 7 17 7 27 -1 12 -8 12 -9 -2 -4 -10
3 -20 1 -23 -4 -4 -6 6 -10 20 -10 14 0 24 -4 21 -8 -3 -5 1 -9 8 -9 21 0 13
27 -15 49 l-24 20 29 -17 c24 -14 30 -15 37 -4 6 9 7 1 4 -21 -4 -28 -3 -31 6
-17 5 9 14 15 20 12 5 -4 30 8 55 24 25 17 50 29 55 26 5 -4 6 2 2 11 -5 14
-3 16 11 11 9 -4 15 -3 12 1 -3 5 3 15 13 24 10 9 21 22 23 29 4 12 7 12 21 0
9 -7 14 -18 10 -25 -3 -6 3 -3 14 7 11 9 23 14 26 10 4 -3 7 -1 7 5 0 15 -13
15 -27 1 -7 -7 -12 -6 -16 6 -5 11 7 25 41 48 25 18 58 44 72 58 19 20 30 25
42 18 11 -6 19 -5 24 2 4 7 3 9 -3 6 -6 -4 -14 0 -17 9 -5 13 -1 15 21 9 27
-6 27 -6 8 10 -16 13 -16 16 -3 11 12 -3 15 -1 11 9 -3 8 2 18 11 21 9 3 16
13 16 20 0 8 7 17 15 20 8 4 15 12 15 19 0 8 6 20 13 27 7 7 14 15 15 18 4 20
15 39 21 36 3 -2 7 8 8 22 0 15 6 28 12 30 6 2 9 8 5 13 -3 5 -2 9 3 9 4 0 9
10 10 23 1 12 8 53 16 92 10 44 14 106 12 170 -5 140 -18 200 -69 310 -120
257 -379 420 -701 441 -44 3 -85 7 -92 9 -6 2 -13 2 -15 1z m-69 -173 c-12
-15 -12 -16 4 -10 9 3 17 5 17 3 0 -6 -52 -38 -64 -40 -19 -3 -36 -17 -36 -29
0 -8 3 -7 9 2 5 8 18 12 30 8 12 -3 19 -1 15 4 -10 16 9 9 22 -8 13 -17 14
-17 7 2 -3 11 -3 17 2 13 4 -4 15 -2 23 5 13 10 14 8 8 -13 l-8 -25 17 23 c12
17 22 21 38 16 20 -6 21 -5 7 12 -14 17 -13 18 1 7 9 -7 18 -11 21 -8 2 3 5
-2 5 -10 0 -8 -5 -11 -10 -8 -6 3 -7 1 -3 -6 4 -6 11 -9 16 -6 5 3 10 0 13 -7
2 -7 2 -3 0 10 -3 22 11 30 22 12 4 -6 11 -8 16 -5 5 4 12 -1 15 -9 3 -9 11
-13 17 -9 6 4 7 1 2 -7 -6 -10 -11 -9 -22 5 -7 11 -13 14 -13 9 0 -6 6 -16 13
-23 10 -11 9 -13 -4 -8 -9 3 -16 0 -16 -8 0 -10 5 -11 18 -4 22 11 32 12 25 1
-3 -5 1 -9 9 -9 8 0 12 4 10 8 -9 14 32 16 56 3 13 -7 21 -13 17 -14 -3 0 -15
-3 -25 -6 -15 -5 -16 -4 -3 6 13 10 12 11 -3 6 -12 -4 -16 -2 -11 6 4 7 3 8
-4 4 -18 -11 -2 -36 22 -36 12 0 28 6 35 13 10 10 12 9 9 -3 -2 -8 3 -14 10
-12 8 1 11 -2 7 -8 -3 -5 -2 -10 4 -10 5 0 12 6 14 13 4 9 6 9 6 0 1 -7 -9
-17 -20 -24 -17 -9 -20 -8 -14 2 6 8 4 10 -5 4 -8 -5 -11 -4 -7 1 3 6 -4 10
-16 11 -12 0 -16 -1 -8 -4 11 -5 11 -7 0 -15 -11 -8 -11 -9 2 -5 21 7 39 -11
32 -32 -4 -13 -3 -14 5 -1 6 8 8 18 5 24 -3 5 -1 6 5 2 6 -3 13 -2 17 4 3 5
12 10 18 10 8 0 8 -3 2 -8 -6 -4 -11 -12 -10 -19 0 -15 15 -30 15 -15 0 7 8
12 18 11 10 0 12 -3 4 -6 -6 -2 -9 -10 -6 -15 4 -7 2 -8 -4 -4 -7 4 -12 2 -12
-3 0 -6 5 -11 12 -11 6 0 8 -3 4 -7 -4 -5 -14 1 -22 11 -8 11 -14 16 -14 10 0
-20 17 -34 42 -36 15 -1 25 -6 22 -10 -2 -4 -13 -5 -24 -3 -12 2 -18 0 -15 -6
4 -5 11 -6 17 -3 8 5 9 1 4 -11 -5 -15 -4 -16 8 -5 9 6 21 10 28 7 8 -4 7 -6
-4 -6 -21 -1 -24 -21 -4 -21 8 0 18 5 21 10 3 6 12 10 18 10 7 0 4 -5 -6 -11
-9 -6 -14 -15 -11 -21 4 -7 2 -8 -4 -4 -7 4 -12 1 -12 -9 0 -12 6 -15 20 -10
23 7 26 -4 8 -24 -11 -12 -9 -13 7 -7 19 6 19 5 3 -8 -19 -14 -25 -32 -8 -21
10 6 12 2 13 -37 0 -13 14 -36 31 -52 21 -19 24 -25 10 -18 -12 6 -25 8 -29 4
-5 -4 -5 -2 -2 4 4 7 1 16 -6 22 -20 16 -43 10 -44 -12 -2 -19 -1 -19 8 -3 14
24 26 21 33 -8 4 -15 11 -22 20 -19 8 3 19 -3 25 -15 10 -17 9 -20 -4 -15 -8
3 -12 11 -9 16 4 6 1 8 -7 6 -8 -3 -23 2 -34 11 -19 15 -19 15 -5 -2 12 -16
12 -20 -1 -28 -11 -8 -9 -9 6 -5 11 3 27 1 35 -5 13 -9 12 -10 -2 -5 -10 3
-20 1 -23 -5 -4 -5 -11 -6 -17 -3 -7 4 -8 2 -4 -5 6 -9 11 -9 22 0 9 7 14 8
14 1 0 -6 -5 -14 -10 -17 -6 -4 -8 -10 -5 -15 3 -5 -3 -10 -12 -12 -15 -3 -14
-5 4 -10 17 -5 21 -2 18 13 -3 12 0 17 7 13 7 -4 8 -3 4 4 -3 6 2 15 12 21 14
7 19 6 19 -4 0 -8 -7 -11 -16 -7 -9 3 -13 2 -9 -3 4 -4 3 -14 -3 -22 -6 -7 -8
-13 -5 -13 4 0 0 -10 -8 -22 -12 -16 -13 -25 -4 -35 6 -7 8 -16 5 -20 -12 -11
14 -32 31 -26 10 3 8 -1 -6 -11 -12 -10 -20 -22 -16 -27 3 -6 11 -3 18 6 10
15 12 14 12 -4 0 -11 -4 -18 -7 -15 -4 2 -10 0 -14 -6 -4 -6 -11 -8 -16 -4 -5
3 -7 10 -4 15 11 17 -2 9 -21 -13 -18 -22 -18 -22 0 -8 18 14 18 13 12 -10 -6
-19 -5 -21 3 -10 8 11 11 12 11 2 0 -7 5 -10 12 -6 7 4 8 3 4 -5 -4 -6 -11 -9
-16 -6 -4 2 -7 -9 -6 -25 0 -17 5 -30 11 -30 5 0 2 -5 -8 -11 -9 -6 -15 -14
-12 -19 3 -5 1 -11 -5 -15 -6 -4 -7 -12 -4 -18 4 -8 2 -7 -7 1 -12 11 -12 14
1 22 13 9 13 10 0 10 -13 0 -13 1 0 10 8 5 11 10 5 10 -5 0 -17 -5 -25 -10 -8
-5 -10 -10 -4 -10 17 0 7 -63 -11 -73 -11 -6 -13 -13 -6 -25 7 -12 3 -23 -17
-41 -15 -14 -31 -24 -35 -23 -5 1 -6 -2 -3 -7 8 -13 -23 -43 -36 -35 -6 4 -8
2 -5 -4 10 -16 -81 -67 -149 -84 -91 -23 -214 -16 -300 18 -131 52 -233 184
-286 370 -17 63 -22 105 -22 209 -1 132 4 195 14 195 3 0 5 13 6 28 2 47 13
81 27 78 6 -1 9 -1 5 1 -12 7 -9 33 3 33 5 0 8 3 6 8 -8 12 12 54 22 47 5 -3
13 0 17 6 4 8 3 9 -4 5 -17 -11 -15 19 3 34 8 6 19 9 26 5 8 -6 8 -2 0 13 -8
16 -7 21 5 26 8 3 13 10 10 14 -3 5 0 9 7 10 7 0 23 3 35 6 18 4 22 2 18 -9
-3 -9 0 -12 9 -9 14 6 14 28 0 41 -4 4 -5 3 -1 -4 4 -8 0 -11 -15 -8 -28 6
-41 18 -14 13 11 -1 19 2 18 8 -1 6 4 11 12 11 8 0 12 -3 10 -7 -2 -3 5 -12
16 -18 19 -12 19 -11 9 9 -10 17 -9 23 1 30 7 4 17 5 23 2 5 -4 7 1 3 10 -3 9
-2 19 4 22 5 4 9 3 8 -2 -4 -21 2 -33 17 -33 8 0 12 -4 9 -10 -11 -18 7 -10
23 11 10 11 26 22 37 23 11 2 19 9 18 14 -2 7 5 9 15 5 9 -3 14 -3 10 2 -7 8
8 35 19 35 3 0 -1 -8 -8 -17z m96 8 c3 -5 2 -12 -3 -15 -5 -3 -9 1 -9 9 0 17
3 19 12 6z m59 -19 c3 -5 -1 -9 -9 -9 -8 0 -12 4 -9 9 3 4 7 8 9 8 2 0 6 -4 9
-8z m46 4 c0 -2 -7 -7 -16 -10 -8 -3 -12 -2 -9 4 6 10 25 14 25 6z m-288 -36
c-12 -14 -19 -17 -29 -8 -7 6 -13 13 -13 15 0 3 8 -1 17 -8 14 -12 16 -12 11
1 -4 11 0 16 12 17 17 2 18 0 2 -17z m138 10 c0 -5 -3 -9 -7 -9 -5 1 -10 0
-13 -1 -19 -7 -39 -7 -34 1 3 5 10 7 15 4 5 -4 9 -1 9 4 0 6 7 11 15 11 8 0
15 -4 15 -10z m166 -6 c-1 -8 -6 -17 -12 -21 -5 -4 -6 -4 -2 1 4 5 3 14 -2 21
-7 8 -5 12 4 12 8 0 13 -6 12 -13z m59 -26 c5 4 5 1 1 -6 -6 -10 -11 -10 -22
-1 -8 6 -14 14 -14 16 0 3 6 0 13 -6 8 -6 18 -7 22 -3z m-42 -12 c3 -8 0 -17
-7 -19 -10 -4 -12 1 -9 14 6 23 9 24 16 5z m64 -5 c0 -11 -5 -18 -9 -15 -4 3
-5 11 -1 19 7 21 12 19 10 -4z m79 -33 c4 -7 4 -10 -1 -6 -4 4 -15 2 -24 -5
-14 -11 -14 -10 -2 6 16 20 18 21 27 5z m45 -125 c-12 -20 -14 -14 -5 12 4 9
9 14 11 11 3 -2 0 -13 -6 -23z m39 -34 c0 -5 -4 -9 -8 -9 -5 0 -9 7 -9 15 0 8
4 12 9 9 4 -3 8 -9 8 -15z m53 -146 c-3 -7 -6 -13 -8 -13 -2 0 -5 6 -8 13 -3
8 1 14 8 14 7 0 11 -6 8 -14z m-1332 -56 c-10 -9 -11 -8 -5 6 3 10 9 15 12 12
3 -3 0 -11 -7 -18z m1353 5 c3 -5 -1 -9 -9 -9 -8 0 -12 4 -9 9 3 4 7 8 9 8 2
0 6 -4 9 -8z m-1372 -99 c-10 -4 -10 -8 0 -21 8 -10 9 -13 1 -9 -6 4 -14 3
-18 -3 -3 -5 -12 -10 -18 -10 -7 0 -6 4 3 10 8 5 11 10 6 10 -5 0 -3 7 4 15 7
8 18 15 24 14 6 0 6 -3 -2 -6z m1371 -68 c-3 -9 -8 -14 -10 -11 -3 3 -2 9 2
15 9 16 15 13 8 -4z m-22 -39 c-8 -10 -9 -16 -1 -21 5 -3 10 -1 10 6 0 7 3 10
6 6 3 -3 3 -11 -1 -17 -5 -8 -10 -8 -20 0 -15 12 -9 40 7 40 6 0 6 -6 -1 -14z
m16 -52 c-3 -3 -12 -4 -19 -1 -8 3 -5 6 6 6 11 1 17 -2 13 -5z m-1332 -63 c3
-5 2 -12 -3 -15 -5 -3 -9 1 -9 9 0 17 3 19 12 6z m-18 -83 c-3 -8 -6 -5 -6 6
-1 11 2 17 5 13 3 -3 4 -12 1 -19z m3 -78 c0 -5 -2 -10 -4 -10 -3 0 -8 5 -11
10 -3 6 -1 10 4 10 6 0 11 -4 11 -10z m35 -10 c3 -6 -1 -7 -9 -4 -18 7 -21 14
-7 14 6 0 13 -4 16 -10z m85 -106 c0 -8 -19 -13 -24 -6 -3 5 1 9 9 9 8 0 15
-2 15 -3z m27 -70 c-3 -3 -12 -4 -19 -1 -8 3 -5 6 6 6 11 1 17 -2 13 -5z m67
-52 c3 -5 -1 -9 -9 -9 -8 0 -12 4 -9 9 3 4 7 8 9 8 2 0 6 -4 9 -8z m59 -37
c-3 -9 -8 -14 -10 -11 -3 3 -2 9 2 15 9 16 15 13 8 -4z m97 -90 c7 -9 8 -15 2
-15 -5 0 -12 7 -16 15 -3 8 -4 15 -2 15 2 0 9 -7 16 -15z m945 -4 c-3 -6 -11
-11 -16 -11 -5 0 -4 6 3 14 14 16 24 13 13 -3z m-36 -38 c-16 -18 -69 -47 -91
-49 -11 -1 -14 4 -10 15 8 22 24 32 37 22 5 -5 19 -5 30 0 11 4 16 8 11 8 -5
1 -3 8 4 16 7 8 16 12 22 9 5 -3 4 -12 -3 -21z m-44 7 c3 -5 1 -10 -4 -10 -6
0 -11 5 -11 10 0 6 2 10 4 10 3 0 8 -4 11 -10z m-80 -9 c3 -5 2 -12 -3 -15 -5
-3 -9 1 -9 9 0 17 3 19 12 6z m-87 -30 c-7 -11 -16 -17 -21 -14 -4 3 0 11 10
19 24 18 25 17 11 -5z m-505 -6 c-3 -9 -8 -14 -10 -11 -3 3 -2 9 2 15 9 16 15
13 8 -4z m65 -11 c2 -1 -8 -1 -21 0 -15 0 -23 6 -20 14 4 10 9 10 22 0 9 -7
17 -13 19 -14z m321 12 c9 -11 9 -16 -1 -22 -7 -4 -10 -4 -6 1 4 4 3 14 -3 22
-6 7 -9 13 -6 13 2 0 10 -6 16 -14z m-409 -28 c0 -18 -2 -20 -9 -8 -6 8 -7 18
-5 22 9 14 14 9 14 -14z m180 18 c0 -3 -4 -8 -10 -11 -5 -3 -10 -1 -10 4 0 6
5 11 10 11 6 0 10 -2 10 -4z m110 -11 c0 -2 -6 -5 -13 -8 -8 -3 -14 1 -14 8 0
7 6 11 14 8 7 -3 13 -6 13 -8z m73 0 c-3 -9 -8 -14 -10 -11 -3 3 -2 9 2 15 9
16 15 13 8 -4z m-23 -14 c0 -22 -53 -37 -57 -16 -1 6 9 8 24 7 16 -3 23 0 19
7 -4 6 -2 11 3 11 6 0 11 -4 11 -9z m184 1 c3 -5 -1 -9 -9 -9 -8 0 -12 4 -9 9
3 4 7 8 9 8 2 0 6 -4 9 -8z"/>
<path d="M3915 3919 c-4 -6 -4 -13 -1 -16 3 -4 6 -1 6 6 0 7 5 9 10 6 6 -4 7
-11 4 -17 -4 -7 -2 -8 5 -4 9 6 9 11 0 22 -14 17 -16 17 -24 3z"/>
<path d="M3996 3917 c3 -10 9 -15 12 -12 3 3 0 11 -7 18 -10 9 -11 8 -5 -6z"/>
<path d="M3677 3914 c-3 -4 1 -13 9 -21 19 -20 26 -13 10 9 -7 10 -16 15 -19
12z"/>
<path d="M3568 3833 c-8 -10 -8 -17 -1 -24 8 -8 13 -7 18 2 5 8 4 10 -3 5 -7
-4 -12 -3 -12 2 0 16 13 22 25 12 8 -7 12 -5 12 3 0 18 -24 17 -39 0z"/>
<path d="M4197 3783 c-10 -9 -9 -23 1 -23 5 0 9 7 9 15 0 17 -1 18 -10 8z"/>
<path d="M4190 3726 c0 -2 8 -10 18 -17 15 -13 16 -12 3 4 -13 16 -21 21 -21
13z"/>
<path d="M4265 3641 c-3 -5 -1 -12 5 -16 6 -4 7 -11 4 -17 -4 -7 -2 -8 4 -4 7
4 12 3 12 -3 0 -5 -6 -11 -12 -14 -7 -3 -3 -4 9 -4 12 1 20 3 18 6 -3 2 1 11
8 19 10 13 9 14 -1 8 -15 -9 -45 12 -36 25 3 5 3 9 0 9 -3 0 -7 -4 -11 -9z"/>
<path d="M4290 3561 c0 -7 -5 -9 -12 -5 -7 5 -8 3 -3 -5 5 -9 10 -10 18 -2 6
6 8 14 4 18 -4 3 -7 1 -7 -6z"/>
<path d="M4305 3540 c-8 -13 3 -30 18 -30 7 0 6 4 -3 10 -13 9 -13 11 0 20 9
6 10 10 3 10 -6 0 -15 -4 -18 -10z"/>
<path d="M4322 3220 c-7 -12 -8 -20 -2 -20 5 0 10 5 10 10 0 6 3 9 8 8 4 -2 8
1 10 7 6 18 -13 15 -26 -5z"/>
<path d="M4311 3116 c-9 -11 -8 -17 4 -30 21 -21 22 -20 21 9 -2 32 -10 39
-25 21z m16 -11 c0 -8 -4 -12 -9 -9 -5 3 -6 10 -3 15 9 13 12 11 12 -6z"/>
<path d="M4271 2997 c-13 -21 -12 -21 5 -5 10 10 16 20 13 22 -3 3 -11 -5 -18
-17z"/>
<path d="M4256 2942 c-3 -5 1 -9 9 -9 8 0 12 4 9 9 -3 4 -7 8 -9 8 -2 0 -6 -4
-9 -8z"/>
<path d="M4230 2909 c0 -5 5 -7 10 -4 6 3 10 8 10 11 0 2 -4 4 -10 4 -5 0 -10
-5 -10 -11z"/>
<path d="M4225 2599 c-9 -14 -2 -20 14 -10 8 6 9 11 3 15 -6 3 -14 1 -17 -5z"/>
<path d="M5247 4076 c-3 -8 0 -13 6 -12 15 2 22 19 9 24 -5 1 -12 -4 -15 -12z"/>
<path d="M5250 4039 c0 -7 -8 -18 -17 -26 -16 -12 -15 -12 9 -2 16 7 24 17 21
25 -6 17 -13 18 -13 3z"/>
<path d="M630 3989 c0 -5 5 -7 10 -4 6 3 10 8 10 11 0 2 -4 4 -10 4 -5 0 -10
-5 -10 -11z"/>
<path d="M620 3960 c6 -11 13 -20 16 -20 2 0 0 9 -6 20 -6 11 -13 20 -16 20
-2 0 0 -9 6 -20z"/>
<path d="M5264 3942 c4 -7 3 -12 -2 -12 -6 0 -12 -6 -15 -14 -4 -9 0 -13 10
-12 19 3 26 33 11 43 -7 3 -8 1 -4 -5z"/>
<path d="M622 3910 c0 -14 2 -19 5 -12 2 6 2 18 0 25 -3 6 -5 1 -5 -13z"/>
<path d="M5250 3875 c0 -9 5 -15 11 -13 6 2 11 8 11 13 0 5 -5 11 -11 13 -6 2
-11 -4 -11 -13z"/>
<path d="M5246 3838 c3 -5 10 -6 15 -3 13 9 11 12 -6 12 -8 0 -12 -4 -9 -9z"/>
<path d="M630 3829 c0 -5 5 -7 10 -4 6 3 10 8 10 11 0 2 -4 4 -10 4 -5 0 -10
-5 -10 -11z"/>
<path d="M620 3800 c6 -11 13 -20 16 -20 2 0 0 9 -6 20 -6 11 -13 20 -16 20
-2 0 0 -9 6 -20z"/>
<path d="M3106 3763 c-6 -14 -5 -15 5 -6 7 7 10 15 7 18 -3 3 -9 -2 -12 -12z"/>
<path d="M622 3750 c0 -14 2 -19 5 -12 2 6 2 18 0 25 -3 6 -5 1 -5 -13z"/>
<path d="M5247 3756 c-3 -8 0 -13 6 -12 15 2 22 19 9 24 -5 1 -12 -4 -15 -12z"/>
<path d="M5250 3719 c0 -7 -8 -18 -17 -26 -16 -12 -15 -12 9 -2 16 7 24 17 21
25 -6 17 -13 18 -13 3z"/>
<path d="M3064 3706 c1 -8 5 -18 8 -22 4 -3 5 1 4 10 -1 8 -5 18 -8 22 -4 3
-5 -1 -4 -10z"/>
<path d="M630 3669 c0 -5 5 -7 10 -4 6 3 10 8 10 11 0 2 -4 4 -10 4 -5 0 -10
-5 -10 -11z"/>
<path d="M3033 3663 c4 -6 2 -15 -4 -18 -5 -4 -8 -14 -5 -22 5 -11 2 -13 -11
-9 -14 6 -15 4 -6 -4 8 -9 16 -9 30 -1 10 6 12 11 6 11 -7 0 -13 5 -13 11 0 5
4 8 9 4 18 -10 21 13 4 26 -10 8 -14 9 -10 2z"/>
<path d="M620 3640 c6 -11 13 -20 16 -20 2 0 0 9 -6 20 -6 11 -13 20 -16 20
-2 0 0 -9 6 -20z"/>
<path d="M5264 3622 c4 -7 3 -12 -2 -12 -6 0 -12 -6 -15 -14 -4 -9 0 -13 10
-12 19 3 26 33 11 43 -7 3 -8 1 -4 -5z"/>
<path d="M622 3590 c0 -14 2 -19 5 -12 2 6 2 18 0 25 -3 6 -5 1 -5 -13z"/>
<path d="M5250 3555 c0 -9 5 -15 11 -13 6 2 11 8 11 13 0 5 -5 11 -11 13 -6 2
-11 -4 -11 -13z"/>
<path d="M2983 3553 c4 -6 2 -13 -5 -15 -8 -3 -6 -7 5 -11 23 -9 30 8 10 24
-9 8 -14 9 -10 2z"/>
<path d="M5246 3518 c3 -5 10 -6 15 -3 13 9 11 12 -6 12 -8 0 -12 -4 -9 -9z"/>
<path d="M630 3509 c0 -5 5 -7 10 -4 6 3 10 8 10 11 0 2 -4 4 -10 4 -5 0 -10
-5 -10 -11z"/>
<path d="M2965 3510 c-3 -5 -1 -10 4 -10 6 0 11 5 11 10 0 6 -2 10 -4 10 -3 0
-8 -4 -11 -10z"/>
<path d="M620 3480 c6 -11 13 -20 16 -20 2 0 0 9 -6 20 -6 11 -13 20 -16 20
-2 0 0 -9 6 -20z"/>
<path d="M5247 3436 c-3 -8 0 -13 6 -12 15 2 22 19 9 24 -5 1 -12 -4 -15 -12z"/>
<path d="M610 3409 c0 -5 5 -7 10 -4 6 3 10 8 10 11 0 2 -4 4 -10 4 -5 0 -10
-5 -10 -11z"/>
<path d="M5250 3399 c0 -7 -8 -18 -17 -26 -16 -12 -15 -12 9 -2 16 7 24 17 21
25 -6 17 -13 18 -13 3z"/>
<path d="M630 3391 c0 -6 6 -11 13 -11 8 0 7 -4 -3 -10 -9 -6 -10 -10 -3 -10
19 0 24 17 8 30 -10 9 -15 9 -15 1z"/>
<path d="M2935 3370 c3 -5 8 -10 11 -10 2 0 4 5 4 10 0 6 -5 10 -11 10 -5 0
-7 -4 -4 -10z"/>
<path d="M620 3340 c-12 -7 -10 -9 7 -7 12 0 19 5 17 9 -6 10 -6 10 -24 -2z"/>
<path d="M5264 3302 c4 -7 3 -12 -2 -12 -6 0 -12 -6 -15 -14 -4 -9 0 -13 10
-12 19 3 26 33 11 43 -7 3 -8 1 -4 -5z"/>
<path d="M5250 3235 c0 -9 5 -15 11 -13 6 2 11 8 11 13 0 5 -5 11 -11 13 -6 2
-11 -4 -11 -13z"/>
<path d="M2954 3198 c-4 -5 -1 -14 6 -18 7 -4 10 -12 7 -18 -4 -5 2 -17 12
-27 20 -17 24 -4 8 22 -4 6 -5 18 -1 26 6 17 -22 31 -32 15z"/>
<path d="M5246 3198 c3 -5 10 -6 15 -3 13 9 11 12 -6 12 -8 0 -12 -4 -9 -9z"/>
<path d="M610 3169 c0 -5 5 -7 10 -4 6 3 10 8 10 11 0 2 -4 4 -10 4 -5 0 -10
-5 -10 -11z"/>
<path d="M6553 3135 c0 -8 4 -15 9 -15 4 0 8 4 8 9 0 6 -4 12 -8 15 -5 3 -9
-1 -9 -9z"/>
<path d="M5242 3115 c-11 -13 -10 -15 5 -12 10 1 19 7 21 12 6 16 -12 15 -26
0z"/>
<path d="M620 3100 c-12 -7 -10 -9 7 -7 12 0 19 5 17 9 -6 10 -6 10 -24 -2z"/>
<path d="M5250 3075 c0 -9 5 -15 11 -13 6 2 11 8 11 13 0 5 -5 11 -11 13 -6 2
-11 -4 -11 -13z"/>
<path d="M2550 3029 c0 -5 5 -7 10 -4 6 3 10 8 10 11 0 2 -4 4 -10 4 -5 0 -10
-5 -10 -11z"/>
<path d="M2980 3016 c0 -2 7 -9 15 -16 9 -7 15 -8 15 -2 0 5 -7 12 -15 16 -8
3 -15 4 -15 2z"/>
<path d="M5234 3001 c0 -11 4 -17 8 -15 4 3 8 0 8 -5 0 -6 -5 -11 -12 -11 -6
0 -9 -2 -6 -5 9 -10 35 5 35 20 0 8 -3 13 -5 10 -3 -3 -10 2 -16 11 -10 13
-12 13 -12 -5z"/>
<path d="M2496 2955 c-9 -26 -7 -32 5 -12 6 10 9 21 6 23 -2 3 -7 -2 -11 -11z"/>
<path d="M6496 2948 c3 -5 10 -6 15 -3 13 9 11 12 -6 12 -8 0 -12 -4 -9 -9z"/>
<path d="M2438 2913 c-11 -13 -13 -24 -7 -38 9 -19 9 -19 5 2 -4 24 15 48 29
35 5 -4 5 -1 1 6 -9 15 -10 15 -28 -5z"/>
<path d="M2479 2903 c-13 -16 -12 -17 4 -4 9 7 17 15 17 17 0 8 -8 3 -21 -13z"/>
<path d="M6475 2890 c3 -5 8 -10 11 -10 2 0 4 5 4 10 0 6 -5 10 -11 10 -5 0
-7 -4 -4 -10z"/>
<path d="M2393 2872 c-8 -14 -8 -19 1 -19 7 0 13 9 13 19 1 10 1 18 0 18 -1 0
-7 -8 -14 -18z"/>
<path d="M6475 2861 c-3 -5 -2 -12 3 -15 5 -3 9 1 9 9 0 17 -3 19 -12 6z"/>
<path d="M2271 2786 c-10 -12 -6 -14 23 -13 20 0 34 2 33 3 -24 18 -46 22 -56
10z"/>
<path d="M4523 2771 c-18 -16 -33 -27 -35 -25 -2 2 -17 -8 -33 -22 -17 -14
-24 -23 -18 -19 7 3 23 8 35 10 13 3 24 9 26 15 2 6 9 7 14 4 7 -5 8 -2 4 5
-9 14 23 43 41 36 7 -2 10 2 6 11 -7 18 -3 19 -40 -15z"/>
<path d="M2260 2755 c0 -2 6 -8 13 -14 10 -8 14 -7 14 2 0 8 -6 14 -14 14 -7
0 -13 -1 -13 -2z"/>
<path d="M370 2689 c0 -5 5 -9 11 -9 5 0 7 -5 4 -10 -4 -6 -10 -8 -15 -5 -5 3
-12 0 -16 -6 -4 -7 -3 -9 3 -6 14 9 23 -16 13 -33 -9 -15 -2 -40 12 -40 5 0 7
4 3 9 -3 5 0 13 6 16 5 4 8 13 5 20 -2 7 2 22 10 33 11 16 12 22 2 29 -19 11
-38 13 -38 2z m34 -8 c3 -5 -2 -15 -12 -22 -15 -12 -16 -12 -5 2 7 9 10 19 6
22 -3 4 -4 7 0 7 3 0 8 -4 11 -9z"/>
<path d="M2175 2691 c-3 -5 -2 -12 3 -15 5 -3 9 1 9 9 0 17 -3 19 -12 6z"/>
<path d="M4988 2693 c6 -2 12 -9 12 -14 0 -6 -8 -6 -19 1 -24 12 -42 13 -22 1
10 -7 11 -13 2 -30 -15 -27 -2 -55 16 -35 8 8 9 15 3 19 -6 3 -10 11 -10 16 0
6 4 8 9 4 5 -3 17 2 26 11 13 14 14 19 3 25 -7 5 -17 8 -23 8 -5 0 -4 -3 3 -6z"/>
<path d="M4388 2668 c-17 -32 -18 -45 -2 -45 10 0 11 4 3 13 -6 8 -6 14 0 18
5 3 11 0 14 -6 2 -7 4 -1 4 15 1 33 -3 34 -19 5z"/>
<path d="M2110 2676 c0 -2 9 -6 20 -9 11 -3 18 -1 14 4 -5 9 -34 13 -34 5z"/>
<path d="M337 2623 c3 -7 6 -13 8 -13 2 0 5 6 8 13 3 8 -1 14 -8 14 -7 0 -11
-6 -8 -14z"/>
<path d="M1926 2625 c-14 -11 -15 -13 -1 -18 8 -4 14 -1 12 6 -2 13 6 13 38 1
17 -7 18 -6 5 7 -17 19 -32 20 -54 4z"/>
<path d="M2020 2629 c0 -5 5 -7 10 -4 6 3 10 8 10 11 0 2 -4 4 -10 4 -5 0 -10
-5 -10 -11z"/>
<path d="M1874 2616 c-4 -11 -10 -13 -18 -7 -8 7 -12 4 -13 -12 -1 -12 1 -17
5 -12 4 6 16 12 27 13 27 5 31 10 17 24 -9 9 -13 7 -18 -6z"/>
<path d="M336 2583 c-6 -14 -5 -15 5 -6 7 7 10 15 7 18 -3 3 -9 -2 -12 -12z"/>
<path d="M3462 2581 c7 -12 17 -20 21 -18 10 3 10 22 0 22 -5 0 -14 4 -21 9
-11 7 -11 4 0 -13z"/>
<path d="M4305 2590 c-3 -6 1 -7 9 -4 18 7 21 14 7 14 -6 0 -13 -4 -16 -10z"/>
<path d="M6750 2585 c-14 -17 -14 -17 18 -20 26 -3 27 1 8 20 -12 12 -16 12
-26 0z"/>
<path d="M640 2581 c0 -5 12 -17 28 -26 l27 -18 -24 27 c-26 28 -31 31 -31 17z"/>
<path d="M6400 2581 c0 -5 12 -17 28 -26 l27 -18 -24 27 c-26 28 -31 31 -31
17z"/>
<path d="M1400 2565 c-7 -8 -16 -12 -21 -9 -5 3 -9 0 -9 -5 0 -14 17 -14 26 0
5 8 9 8 14 -1 5 -8 9 -7 13 4 8 21 -8 29 -23 11z"/>
<path d="M1626 2569 c2 -4 0 -10 -6 -14 -5 -3 -10 -1 -10 4 0 22 -16 10 -17
-11 0 -13 1 -17 4 -10 4 10 8 10 20 1 11 -10 13 -10 11 1 -2 7 3 15 11 18 9 3
11 0 6 -8 -5 -8 -4 -11 3 -6 15 9 5 33 -13 33 -8 0 -12 -4 -9 -8z"/>
<path d="M6080 2570 c-8 -5 -18 -6 -24 -3 -5 3 -6 1 -2 -6 4 -6 12 -8 18 -5 6
4 14 0 19 -7 7 -12 9 -11 9 1 0 13 1 13 10 0 9 -13 10 -13 10 0 0 13 1 13 10
0 8 -13 10 -13 10 -1 0 11 4 9 15 -5 8 -10 15 -14 15 -7 0 14 -19 28 -40 28
-8 0 -20 3 -25 7 -6 4 -17 3 -25 -2z"/>
<path d="M355 2560 c-3 -6 1 -7 9 -4 18 7 21 14 7 14 -6 0 -13 -4 -16 -10z"/>
<path d="M1563 2555 c0 -8 4 -12 9 -9 5 3 6 10 3 15 -9 13 -12 11 -12 -6z"/>
<path d="M5830 2552 c6 -13 14 -21 18 -18 3 4 -2 14 -12 24 -18 16 -18 16 -6
-6z"/>
<path d="M440 2548 c0 -4 4 -8 9 -8 6 0 12 4 15 8 3 5 -1 9 -9 9 -8 0 -15 -4
-15 -9z"/>
<path d="M3646 2541 c-3 -4 1 -17 9 -27 15 -19 15 -19 8 0 -5 15 -3 17 8 11
12 -8 12 -6 0 8 -15 19 -18 20 -25 8z"/>
<path d="M5230 2540 c-9 -6 -10 -10 -3 -10 6 0 15 5 18 10 8 12 4 12 -15 0z"/>
<path d="M6750 2541 c0 -6 4 -13 10 -16 6 -3 7 1 4 9 -7 18 -14 21 -14 7z"/>
<path d="M415 2530 c3 -5 8 -10 11 -10 2 0 4 5 4 10 0 6 -5 10 -11 10 -5 0 -7
-4 -4 -10z"/>
<path d="M1235 2530 c-3 -5 -1 -10 4 -10 6 0 11 5 11 10 0 6 -2 10 -4 10 -3 0
-8 -4 -11 -10z"/>
<path d="M3940 2525 c-7 -9 -10 -18 -6 -22 3 -3 6 -1 6 5 0 7 5 12 11 12 5 0
7 -6 3 -12 -4 -7 -4 -10 1 -6 4 4 14 3 22 -3 19 -16 16 -6 -6 20 -16 19 -20
19 -31 6z"/>
<path d="M4980 2535 c0 -7 30 -13 34 -7 3 4 -4 9 -15 9 -10 1 -19 0 -19 -2z"/>
<path d="M6073 2525 c0 -8 4 -12 9 -9 5 3 6 10 3 15 -9 13 -12 11 -12 -6z"/>
<path d="M4040 2510 c-8 -5 -10 -10 -5 -10 6 0 17 5 25 10 8 5 11 10 5 10 -5
0 -17 -5 -25 -10z"/>
<path d="M4110 2511 c0 -6 4 -13 10 -16 6 -3 7 1 4 9 -7 18 -14 21 -14 7z"/>
<path d="M6719 2503 c-13 -16 -12 -17 4 -4 16 13 21 21 13 21 -2 0 -10 -8 -17
-17z"/>
</g>
</svg>
